<svg width="109" height="210" viewBox="0 0 109 210" fill="none" xmlns="http://www.w3.org/2000/svg">
<path d="M38.2471 203H33.7939L33.8232 200.7H38.2471C39.7705 200.7 41.04 200.383 42.0557 199.748C43.0713 199.104 43.833 198.205 44.3408 197.053C44.8584 195.891 45.1172 194.533 45.1172 192.98V191.677C45.1172 190.456 44.9707 189.372 44.6777 188.425C44.3848 187.468 43.9551 186.662 43.3887 186.008C42.8223 185.344 42.1289 184.841 41.3086 184.499C40.498 184.157 39.5654 183.986 38.5107 183.986H33.7061V181.672H38.5107C39.9072 181.672 41.1816 181.906 42.334 182.375C43.4863 182.834 44.4775 183.503 45.3076 184.382C46.1475 185.251 46.792 186.306 47.2412 187.546C47.6904 188.776 47.915 190.163 47.915 191.706V192.98C47.915 194.523 47.6904 195.915 47.2412 197.155C46.792 198.386 46.1426 199.436 45.293 200.305C44.4531 201.174 43.4375 201.843 42.2461 202.312C41.0645 202.771 39.7314 203 38.2471 203ZM35.3027 181.672V203H32.4756V181.672H35.3027ZM51.0352 195.251V194.914C51.0352 193.771 51.2012 192.712 51.5332 191.735C51.8652 190.749 52.3438 189.895 52.9688 189.172C53.5938 188.439 54.3506 187.873 55.2393 187.473C56.1279 187.062 57.124 186.857 58.2275 186.857C59.3408 186.857 60.3418 187.062 61.2305 187.473C62.1289 187.873 62.8906 188.439 63.5156 189.172C64.1504 189.895 64.6338 190.749 64.9658 191.735C65.2979 192.712 65.4639 193.771 65.4639 194.914V195.251C65.4639 196.394 65.2979 197.453 64.9658 198.43C64.6338 199.406 64.1504 200.261 63.5156 200.993C62.8906 201.716 62.1338 202.282 61.2451 202.692C60.3662 203.093 59.3701 203.293 58.2568 203.293C57.1436 203.293 56.1426 203.093 55.2539 202.692C54.3652 202.282 53.6035 201.716 52.9688 200.993C52.3438 200.261 51.8652 199.406 51.5332 198.43C51.2012 197.453 51.0352 196.394 51.0352 195.251ZM53.7451 194.914V195.251C53.7451 196.042 53.8379 196.789 54.0234 197.492C54.209 198.186 54.4873 198.801 54.8584 199.338C55.2393 199.875 55.7129 200.3 56.2793 200.612C56.8457 200.915 57.5049 201.066 58.2568 201.066C58.999 201.066 59.6484 200.915 60.2051 200.612C60.7715 200.3 61.2402 199.875 61.6113 199.338C61.9824 198.801 62.2607 198.186 62.4463 197.492C62.6416 196.789 62.7393 196.042 62.7393 195.251V194.914C62.7393 194.133 62.6416 193.396 62.4463 192.702C62.2607 191.999 61.9775 191.379 61.5967 190.842C61.2256 190.295 60.7568 189.865 60.1904 189.553C59.6338 189.24 58.9795 189.084 58.2275 189.084C57.4854 189.084 56.8311 189.24 56.2646 189.553C55.708 189.865 55.2393 190.295 54.8584 190.842C54.4873 191.379 54.209 191.999 54.0234 192.702C53.8379 193.396 53.7451 194.133 53.7451 194.914ZM79.248 187.15V203H76.5234V187.15H79.248ZM76.3184 182.946C76.3184 182.507 76.4502 182.136 76.7139 181.833C76.9873 181.53 77.3877 181.379 77.915 181.379C78.4326 181.379 78.8281 181.53 79.1016 181.833C79.3848 182.136 79.5264 182.507 79.5264 182.946C79.5264 183.366 79.3848 183.728 79.1016 184.03C78.8281 184.323 78.4326 184.47 77.915 184.47C77.3877 184.47 76.9873 184.323 76.7139 184.03C76.4502 183.728 76.3184 183.366 76.3184 182.946ZM90.2344 187.15V189.23H81.665V187.15H90.2344ZM84.5654 183.298H87.2754V199.074C87.2754 199.611 87.3584 200.017 87.5244 200.29C87.6904 200.563 87.9053 200.744 88.1689 200.832C88.4326 200.92 88.7158 200.964 89.0186 200.964C89.2432 200.964 89.4775 200.944 89.7217 200.905C89.9756 200.856 90.166 200.817 90.293 200.788L90.3076 203C90.0928 203.068 89.8096 203.132 89.458 203.19C89.1162 203.259 88.7012 203.293 88.2129 203.293C87.5488 203.293 86.9385 203.161 86.3818 202.897C85.8252 202.634 85.3809 202.194 85.0488 201.579C84.7266 200.954 84.5654 200.114 84.5654 199.06V183.298Z" fill="black"/>
<path d="M81.75 49.9584C88.5171 49.9584 94.7846 52.093 99.9167 55.6809V36.3334C99.9167 31.2921 95.8746 27.25 90.8333 27.25H72.6667V18.1667C72.6667 13.1255 68.6246 9.08337 63.5833 9.08337H45.4167C40.3754 9.08337 36.3333 13.1255 36.3333 18.1667V27.25H18.1667C13.1254 27.25 9.12875 31.2921 9.12875 36.3334L9.08334 86.2917C9.08334 91.333 13.1254 95.375 18.1667 95.375H53.0467C50.7424 90.5314 49.7021 85.1832 50.0226 79.8291C50.3431 74.4749 52.014 69.289 54.8796 64.7548C57.7452 60.2207 61.7121 56.4859 66.4106 53.8986C71.1091 51.3113 76.3862 49.9558 81.75 49.9584V49.9584ZM45.4167 18.1667H63.5833V27.25H45.4167V18.1667Z" fill="#FF4F5A"/>
<path d="M81.75 59.0416C69.215 59.0416 59.0417 69.215 59.0417 81.75C59.0417 94.285 69.215 104.458 81.75 104.458C94.285 104.458 104.458 94.285 104.458 81.75C104.458 69.215 94.285 59.0416 81.75 59.0416ZM89.2437 92.4229L79.4792 82.6583V68.125H84.0208V80.7962L92.4229 89.1983L89.2437 92.4229V92.4229Z" fill="#FF4F5A"/>
</svg>
