<svg width="84" height="22" viewBox="0 0 84 22" fill="none" xmlns="http://www.w3.org/2000/svg">
<path d="M20.9001 11.0001L14.3001 5.5001V8.8001H6.6001V13.2001H14.3001V16.5001L20.9001 11.0001ZM3.3001 3.3001H12.1001V1.1001H3.3001C2.0901 1.1001 1.1001 2.0901 1.1001 3.3001V18.7001C1.1001 19.9101 2.0901 20.9001 3.3001 20.9001H12.1001V18.7001H3.3001V3.3001Z" fill="#FF4F5A"/>
<path d="M36.0059 3.5V17H34.3711V3.5H36.0059ZM38.1855 12.3506V12.1484C38.1855 11.4629 38.2852 10.8271 38.4844 10.2412C38.6836 9.64941 38.9707 9.13672 39.3457 8.70312C39.7207 8.26367 40.1748 7.92383 40.708 7.68359C41.2412 7.4375 41.8389 7.31445 42.501 7.31445C43.1689 7.31445 43.7695 7.4375 44.3027 7.68359C44.8418 7.92383 45.2988 8.26367 45.6738 8.70312C46.0547 9.13672 46.3447 9.64941 46.5439 10.2412C46.7432 10.8271 46.8428 11.4629 46.8428 12.1484V12.3506C46.8428 13.0361 46.7432 13.6719 46.5439 14.2578C46.3447 14.8438 46.0547 15.3564 45.6738 15.7959C45.2988 16.2295 44.8447 16.5693 44.3115 16.8154C43.7842 17.0557 43.1865 17.1758 42.5186 17.1758C41.8506 17.1758 41.25 17.0557 40.7168 16.8154C40.1836 16.5693 39.7266 16.2295 39.3457 15.7959C38.9707 15.3564 38.6836 14.8438 38.4844 14.2578C38.2852 13.6719 38.1855 13.0361 38.1855 12.3506ZM39.8115 12.1484V12.3506C39.8115 12.8252 39.8672 13.2734 39.9785 13.6953C40.0898 14.1113 40.2568 14.4805 40.4795 14.8027C40.708 15.125 40.9922 15.3799 41.332 15.5674C41.6719 15.749 42.0674 15.8398 42.5186 15.8398C42.9639 15.8398 43.3535 15.749 43.6875 15.5674C44.0273 15.3799 44.3086 15.125 44.5312 14.8027C44.7539 14.4805 44.9209 14.1113 45.0322 13.6953C45.1494 13.2734 45.208 12.8252 45.208 12.3506V12.1484C45.208 11.6797 45.1494 11.2373 45.0322 10.8213C44.9209 10.3994 44.751 10.0273 44.5225 9.70508C44.2998 9.37695 44.0186 9.11914 43.6787 8.93164C43.3447 8.74414 42.9521 8.65039 42.501 8.65039C42.0557 8.65039 41.6631 8.74414 41.3232 8.93164C40.9893 9.11914 40.708 9.37695 40.4795 9.70508C40.2568 10.0273 40.0898 10.3994 39.9785 10.8213C39.8672 11.2373 39.8115 11.6797 39.8115 12.1484ZM55.043 7.49023H56.5195V16.7979C56.5195 17.6357 56.3496 18.3506 56.0098 18.9424C55.6699 19.5342 55.1953 19.9824 54.5859 20.2871C53.9824 20.5977 53.2852 20.7529 52.4941 20.7529C52.166 20.7529 51.7793 20.7002 51.334 20.5947C50.8945 20.4951 50.4609 20.3223 50.0332 20.0762C49.6113 19.8359 49.2568 19.5107 48.9697 19.1006L49.8223 18.1338C50.2207 18.6143 50.6367 18.9482 51.0703 19.1357C51.5098 19.3232 51.9434 19.417 52.3711 19.417C52.8867 19.417 53.332 19.3203 53.707 19.127C54.082 18.9336 54.3721 18.6465 54.5771 18.2656C54.7881 17.8906 54.8936 17.4277 54.8936 16.877V9.58203L55.043 7.49023ZM48.4951 12.3506V12.166C48.4951 11.4395 48.5801 10.7803 48.75 10.1885C48.9258 9.59082 49.1748 9.07812 49.4971 8.65039C49.8252 8.22266 50.2207 7.89453 50.6836 7.66602C51.1465 7.43164 51.668 7.31445 52.248 7.31445C52.8457 7.31445 53.3672 7.41992 53.8125 7.63086C54.2637 7.83594 54.6445 8.1377 54.9551 8.53613C55.2715 8.92871 55.5205 9.40332 55.7021 9.95996C55.8838 10.5166 56.0098 11.1465 56.0801 11.8496V12.6582C56.0156 13.3555 55.8896 13.9824 55.7021 14.5391C55.5205 15.0957 55.2715 15.5703 54.9551 15.9629C54.6445 16.3555 54.2637 16.6572 53.8125 16.8682C53.3613 17.0732 52.834 17.1758 52.2305 17.1758C51.6621 17.1758 51.1465 17.0557 50.6836 16.8154C50.2266 16.5752 49.834 16.2383 49.5059 15.8047C49.1777 15.3711 48.9258 14.8613 48.75 14.2754C48.5801 13.6836 48.4951 13.042 48.4951 12.3506ZM50.1211 12.166V12.3506C50.1211 12.8252 50.168 13.2705 50.2617 13.6865C50.3613 14.1025 50.5107 14.4688 50.71 14.7852C50.915 15.1016 51.1758 15.3506 51.4922 15.5322C51.8086 15.708 52.1865 15.7959 52.626 15.7959C53.165 15.7959 53.6104 15.6816 53.9619 15.4531C54.3135 15.2246 54.5918 14.9229 54.7969 14.5479C55.0078 14.1729 55.1719 13.7656 55.2891 13.3262V11.208C55.2246 10.8857 55.125 10.5752 54.9902 10.2764C54.8613 9.97168 54.6914 9.70215 54.4805 9.46777C54.2754 9.22754 54.0205 9.03711 53.7158 8.89648C53.4111 8.75586 53.0537 8.68555 52.6436 8.68555C52.1982 8.68555 51.8145 8.7793 51.4922 8.9668C51.1758 9.14844 50.915 9.40039 50.71 9.72266C50.5107 10.0391 50.3613 10.4082 50.2617 10.8301C50.168 11.2461 50.1211 11.6914 50.1211 12.166ZM58.5586 12.3506V12.1484C58.5586 11.4629 58.6582 10.8271 58.8574 10.2412C59.0566 9.64941 59.3438 9.13672 59.7188 8.70312C60.0938 8.26367 60.5479 7.92383 61.0811 7.68359C61.6143 7.4375 62.2119 7.31445 62.874 7.31445C63.542 7.31445 64.1426 7.4375 64.6758 7.68359C65.2148 7.92383 65.6719 8.26367 66.0469 8.70312C66.4277 9.13672 66.7178 9.64941 66.917 10.2412C67.1162 10.8271 67.2158 11.4629 67.2158 12.1484V12.3506C67.2158 13.0361 67.1162 13.6719 66.917 14.2578C66.7178 14.8438 66.4277 15.3564 66.0469 15.7959C65.6719 16.2295 65.2178 16.5693 64.6846 16.8154C64.1572 17.0557 63.5596 17.1758 62.8916 17.1758C62.2236 17.1758 61.623 17.0557 61.0898 16.8154C60.5566 16.5693 60.0996 16.2295 59.7188 15.7959C59.3438 15.3564 59.0566 14.8438 58.8574 14.2578C58.6582 13.6719 58.5586 13.0361 58.5586 12.3506ZM60.1846 12.1484V12.3506C60.1846 12.8252 60.2402 13.2734 60.3516 13.6953C60.4629 14.1113 60.6299 14.4805 60.8525 14.8027C61.0811 15.125 61.3652 15.3799 61.7051 15.5674C62.0449 15.749 62.4404 15.8398 62.8916 15.8398C63.3369 15.8398 63.7266 15.749 64.0605 15.5674C64.4004 15.3799 64.6816 15.125 64.9043 14.8027C65.127 14.4805 65.2939 14.1113 65.4053 13.6953C65.5225 13.2734 65.5811 12.8252 65.5811 12.3506V12.1484C65.5811 11.6797 65.5225 11.2373 65.4053 10.8213C65.2939 10.3994 65.124 10.0273 64.8955 9.70508C64.6729 9.37695 64.3916 9.11914 64.0518 8.93164C63.7178 8.74414 63.3252 8.65039 62.874 8.65039C62.4287 8.65039 62.0361 8.74414 61.6963 8.93164C61.3623 9.11914 61.0811 9.37695 60.8525 9.70508C60.6299 10.0273 60.4629 10.3994 60.3516 10.8213C60.2402 11.2373 60.1846 11.6797 60.1846 12.1484ZM75.0732 14.8027V7.49023H76.708V17H75.1523L75.0732 14.8027ZM75.3809 12.7988L76.0576 12.7812C76.0576 13.4141 75.9902 14 75.8555 14.5391C75.7266 15.0723 75.5156 15.5352 75.2227 15.9277C74.9297 16.3203 74.5459 16.6279 74.0713 16.8506C73.5967 17.0674 73.0195 17.1758 72.3398 17.1758C71.877 17.1758 71.4521 17.1084 71.0654 16.9736C70.6846 16.8389 70.3564 16.6309 70.0811 16.3496C69.8057 16.0684 69.5918 15.7021 69.4395 15.251C69.293 14.7998 69.2197 14.2578 69.2197 13.625V7.49023H70.8457V13.6426C70.8457 14.0703 70.8926 14.4248 70.9863 14.7061C71.0859 14.9814 71.2178 15.2012 71.3818 15.3652C71.5518 15.5234 71.7393 15.6348 71.9443 15.6992C72.1553 15.7637 72.3721 15.7959 72.5947 15.7959C73.2861 15.7959 73.834 15.6641 74.2383 15.4004C74.6426 15.1309 74.9326 14.7705 75.1084 14.3193C75.29 13.8623 75.3809 13.3555 75.3809 12.7988ZM83.168 7.49023V8.73828H78.0264V7.49023H83.168ZM79.7666 5.17871H81.3926V14.6445C81.3926 14.9668 81.4424 15.21 81.542 15.374C81.6416 15.5381 81.7705 15.6465 81.9287 15.6992C82.0869 15.752 82.2568 15.7783 82.4385 15.7783C82.5732 15.7783 82.7139 15.7666 82.8604 15.7432C83.0127 15.7139 83.127 15.6904 83.2031 15.6729L83.2119 17C83.083 17.041 82.9131 17.0791 82.7021 17.1143C82.4971 17.1553 82.248 17.1758 81.9551 17.1758C81.5566 17.1758 81.1904 17.0967 80.8564 16.9385C80.5225 16.7803 80.2559 16.5166 80.0566 16.1475C79.8633 15.7725 79.7666 15.2686 79.7666 14.6357V5.17871Z" fill="#FF4F5A"/>
</svg>
