<svg width="111" height="210" viewBox="0 0 111 210" fill="none" xmlns="http://www.w3.org/2000/svg">
<path d="M19.4756 181.672H26.5361C28.1377 181.672 29.4902 181.916 30.5938 182.404C31.707 182.893 32.5518 183.615 33.1279 184.572C33.7139 185.52 34.0068 186.687 34.0068 188.073C34.0068 189.05 33.8066 189.943 33.4062 190.754C33.0156 191.555 32.4492 192.238 31.707 192.805C30.9746 193.361 30.0957 193.776 29.0703 194.05L28.2793 194.357H21.6436L21.6143 192.058H26.624C27.6396 192.058 28.4844 191.882 29.1582 191.53C29.832 191.169 30.3398 190.686 30.6816 190.08C31.0234 189.475 31.1943 188.806 31.1943 188.073C31.1943 187.253 31.0332 186.535 30.7109 185.92C30.3887 185.305 29.8809 184.831 29.1875 184.499C28.5039 184.157 27.6201 183.986 26.5361 183.986H22.3027V203H19.4756V181.672ZM31.9414 203L26.7559 193.332L29.7002 193.317L34.959 202.824V203H31.9414ZM44.1289 203.293C43.0254 203.293 42.0244 203.107 41.126 202.736C40.2373 202.355 39.4707 201.823 38.8262 201.14C38.1914 200.456 37.7031 199.646 37.3613 198.708C37.0195 197.771 36.8486 196.745 36.8486 195.632V195.017C36.8486 193.728 37.0391 192.58 37.4199 191.574C37.8008 190.559 38.3184 189.699 38.9727 188.996C39.627 188.293 40.3691 187.761 41.1992 187.399C42.0293 187.038 42.8887 186.857 43.7773 186.857C44.9102 186.857 45.8867 187.053 46.707 187.443C47.5371 187.834 48.2158 188.381 48.7432 189.084C49.2705 189.777 49.6611 190.598 49.915 191.545C50.1689 192.482 50.2959 193.508 50.2959 194.621V195.837H38.46V193.625H47.5859V193.42C47.5469 192.717 47.4004 192.033 47.1465 191.369C46.9023 190.705 46.5117 190.158 45.9746 189.729C45.4375 189.299 44.7051 189.084 43.7773 189.084C43.1621 189.084 42.5957 189.216 42.0781 189.479C41.5605 189.733 41.1162 190.114 40.7451 190.622C40.374 191.13 40.0859 191.75 39.8809 192.482C39.6758 193.215 39.5732 194.06 39.5732 195.017V195.632C39.5732 196.384 39.6758 197.092 39.8809 197.756C40.0957 198.41 40.4033 198.986 40.8037 199.484C41.2139 199.982 41.707 200.373 42.2832 200.656C42.8691 200.939 43.5332 201.081 44.2754 201.081C45.2324 201.081 46.043 200.886 46.707 200.495C47.3711 200.104 47.9521 199.582 48.4502 198.928L50.0908 200.231C49.749 200.749 49.3145 201.242 48.7871 201.711C48.2598 202.18 47.6104 202.561 46.8389 202.854C46.0771 203.146 45.1738 203.293 44.1289 203.293ZM56.1699 190.197V209.094H53.4453V187.15H55.9355L56.1699 190.197ZM66.8486 194.943V195.251C66.8486 196.403 66.7119 197.473 66.4385 198.459C66.165 199.436 65.7646 200.285 65.2373 201.008C64.7197 201.73 64.0801 202.292 63.3184 202.692C62.5566 203.093 61.6826 203.293 60.6963 203.293C59.6904 203.293 58.8018 203.127 58.0303 202.795C57.2588 202.463 56.6045 201.979 56.0674 201.345C55.5303 200.71 55.1006 199.948 54.7783 199.06C54.4658 198.171 54.251 197.17 54.1338 196.057V194.416C54.251 193.244 54.4707 192.194 54.793 191.267C55.1152 190.339 55.54 189.548 56.0674 188.894C56.6045 188.229 57.2539 187.727 58.0156 187.385C58.7773 187.033 59.6562 186.857 60.6523 186.857C61.6484 186.857 62.5322 187.053 63.3037 187.443C64.0752 187.824 64.7246 188.371 65.252 189.084C65.7793 189.797 66.1748 190.651 66.4385 191.647C66.7119 192.634 66.8486 193.732 66.8486 194.943ZM64.124 195.251V194.943C64.124 194.152 64.041 193.41 63.875 192.717C63.709 192.014 63.4502 191.398 63.0986 190.871C62.7568 190.334 62.3174 189.914 61.7803 189.611C61.2432 189.299 60.6035 189.143 59.8613 189.143C59.1777 189.143 58.582 189.26 58.0742 189.494C57.5762 189.729 57.1514 190.046 56.7998 190.446C56.4482 190.837 56.1602 191.286 55.9355 191.794C55.7207 192.292 55.5596 192.81 55.4521 193.347V197.141C55.6475 197.824 55.9209 198.469 56.2725 199.074C56.624 199.67 57.0928 200.153 57.6787 200.524C58.2646 200.886 59.002 201.066 59.8906 201.066C60.623 201.066 61.2529 200.915 61.7803 200.612C62.3174 200.3 62.7568 199.875 63.0986 199.338C63.4502 198.801 63.709 198.186 63.875 197.492C64.041 196.789 64.124 196.042 64.124 195.251ZM76.8828 203.293C75.7793 203.293 74.7783 203.107 73.8799 202.736C72.9912 202.355 72.2246 201.823 71.5801 201.14C70.9453 200.456 70.457 199.646 70.1152 198.708C69.7734 197.771 69.6025 196.745 69.6025 195.632V195.017C69.6025 193.728 69.793 192.58 70.1738 191.574C70.5547 190.559 71.0723 189.699 71.7266 188.996C72.3809 188.293 73.123 187.761 73.9531 187.399C74.7832 187.038 75.6426 186.857 76.5312 186.857C77.6641 186.857 78.6406 187.053 79.4609 187.443C80.291 187.834 80.9697 188.381 81.4971 189.084C82.0244 189.777 82.415 190.598 82.6689 191.545C82.9229 192.482 83.0498 193.508 83.0498 194.621V195.837H71.2139V193.625H80.3398V193.42C80.3008 192.717 80.1543 192.033 79.9004 191.369C79.6562 190.705 79.2656 190.158 78.7285 189.729C78.1914 189.299 77.459 189.084 76.5312 189.084C75.916 189.084 75.3496 189.216 74.832 189.479C74.3145 189.733 73.8701 190.114 73.499 190.622C73.1279 191.13 72.8398 191.75 72.6348 192.482C72.4297 193.215 72.3271 194.06 72.3271 195.017V195.632C72.3271 196.384 72.4297 197.092 72.6348 197.756C72.8496 198.41 73.1572 198.986 73.5576 199.484C73.9678 199.982 74.4609 200.373 75.0371 200.656C75.623 200.939 76.2871 201.081 77.0293 201.081C77.9863 201.081 78.7969 200.886 79.4609 200.495C80.125 200.104 80.7061 199.582 81.2041 198.928L82.8447 200.231C82.5029 200.749 82.0684 201.242 81.541 201.711C81.0137 202.18 80.3643 202.561 79.5928 202.854C78.8311 203.146 77.9277 203.293 76.8828 203.293ZM95.5596 200.29V192.131C95.5596 191.506 95.4326 190.964 95.1787 190.505C94.9346 190.036 94.5635 189.675 94.0654 189.421C93.5674 189.167 92.9521 189.04 92.2197 189.04C91.5361 189.04 90.9355 189.157 90.418 189.392C89.9102 189.626 89.5098 189.934 89.2168 190.314C88.9336 190.695 88.792 191.105 88.792 191.545H86.082C86.082 190.979 86.2285 190.417 86.5215 189.86C86.8145 189.304 87.2344 188.801 87.7812 188.352C88.3379 187.893 89.002 187.531 89.7734 187.268C90.5547 186.994 91.4238 186.857 92.3809 186.857C93.5332 186.857 94.5488 187.053 95.4277 187.443C96.3164 187.834 97.0098 188.425 97.5078 189.216C98.0156 189.997 98.2695 190.979 98.2695 192.16V199.543C98.2695 200.07 98.3135 200.632 98.4014 201.228C98.499 201.823 98.6406 202.336 98.8262 202.766V203H95.999C95.8623 202.688 95.7549 202.272 95.6768 201.755C95.5986 201.228 95.5596 200.739 95.5596 200.29ZM96.0283 193.391L96.0576 195.295H93.3184C92.5469 195.295 91.8584 195.358 91.2529 195.485C90.6475 195.603 90.1396 195.783 89.7295 196.027C89.3193 196.271 89.0068 196.579 88.792 196.95C88.5771 197.312 88.4697 197.736 88.4697 198.225C88.4697 198.723 88.582 199.177 88.8066 199.587C89.0312 199.997 89.3682 200.324 89.8174 200.568C90.2764 200.803 90.8379 200.92 91.502 200.92C92.332 200.92 93.0645 200.744 93.6992 200.393C94.334 200.041 94.8369 199.611 95.208 199.104C95.5889 198.596 95.7939 198.103 95.8232 197.624L96.9805 198.928C96.9121 199.338 96.7266 199.792 96.4238 200.29C96.1211 200.788 95.7158 201.267 95.208 201.726C94.71 202.175 94.1143 202.551 93.4209 202.854C92.7373 203.146 91.9658 203.293 91.1064 203.293C90.0322 203.293 89.0898 203.083 88.2793 202.663C87.4785 202.243 86.8535 201.682 86.4043 200.979C85.9648 200.266 85.7451 199.47 85.7451 198.591C85.7451 197.741 85.9111 196.994 86.2432 196.35C86.5752 195.695 87.0537 195.153 87.6787 194.724C88.3037 194.284 89.0557 193.952 89.9346 193.728C90.8135 193.503 91.7949 193.391 92.8789 193.391H96.0283ZM109.168 187.15V189.23H100.599V187.15H109.168ZM103.499 183.298H106.209V199.074C106.209 199.611 106.292 200.017 106.458 200.29C106.624 200.563 106.839 200.744 107.103 200.832C107.366 200.92 107.649 200.964 107.952 200.964C108.177 200.964 108.411 200.944 108.655 200.905C108.909 200.856 109.1 200.817 109.227 200.788L109.241 203C109.026 203.068 108.743 203.132 108.392 203.19C108.05 203.259 107.635 203.293 107.146 203.293C106.482 203.293 105.872 203.161 105.315 202.897C104.759 202.634 104.314 202.194 103.982 201.579C103.66 200.954 103.499 200.114 103.499 199.06V183.298Z" fill="black"/>
<path d="M95.375 54.5V27.25C95.375 22.2542 91.2875 18.1667 86.2917 18.1667H81.75V13.625C81.75 11.1271 79.7062 9.08337 77.2083 9.08337C74.7104 9.08337 72.6667 11.1271 72.6667 13.625V18.1667H36.3333V13.625C36.3333 11.1271 34.2896 9.08337 31.7917 9.08337C29.2937 9.08337 27.25 11.1271 27.25 13.625V18.1667H22.7083C17.7125 18.1667 13.625 22.2542 13.625 27.25V90.8334C13.625 95.8292 17.7125 99.9167 22.7083 99.9167H54.5V90.8334H22.7083V45.4167H86.2917V54.5H95.375ZM68.7154 90.8334C66.2175 90.8334 64.5825 93.3767 65.6271 95.6475C67.4192 99.6274 70.3228 103.005 73.9888 105.374C77.6547 107.742 81.927 109.002 86.2917 109C98.8267 109 109 98.8267 109 86.2917C109 73.7567 98.8267 63.5834 86.2917 63.5834C80.115 63.5834 74.4833 66.0813 70.3958 70.078V66.9896C70.3958 65.1275 68.8517 63.5834 66.9896 63.5834C65.1275 63.5834 63.5833 65.1275 63.5833 66.9896V77.2084C63.5833 79.7063 65.6271 81.75 68.125 81.75H78.3437C80.2058 81.75 81.75 80.2059 81.75 78.3438C81.75 76.4817 80.2058 74.9375 78.3437 74.9375H75.1646C78.0258 72.1217 81.9771 70.3959 86.2917 70.3959C95.0571 70.3959 102.187 77.5263 102.187 86.2917C102.187 95.0571 95.0571 102.188 86.2917 102.188C79.8425 102.188 74.3017 98.3271 71.8037 92.8317C71.5365 92.2362 71.1028 91.7308 70.5549 91.3762C70.0069 91.0216 69.3681 90.8331 68.7154 90.8334V90.8334Z" fill="#FF4F5A"/>
</svg>
