<svg width="140" height="210" viewBox="0 0 140 210" fill="none" xmlns="http://www.w3.org/2000/svg">
<path d="M14.1895 197.609C14.1895 197.111 14.1113 196.672 13.9551 196.291C13.8086 195.9 13.5449 195.549 13.1641 195.236C12.793 194.924 12.2754 194.626 11.6113 194.343C10.957 194.06 10.127 193.771 9.12109 193.479C8.06641 193.166 7.11426 192.819 6.26465 192.438C5.41504 192.048 4.6875 191.604 4.08203 191.105C3.47656 190.607 3.0127 190.036 2.69043 189.392C2.36816 188.747 2.20703 188.01 2.20703 187.18C2.20703 186.35 2.37793 185.583 2.71973 184.88C3.06152 184.177 3.5498 183.566 4.18457 183.049C4.8291 182.521 5.5957 182.111 6.48438 181.818C7.37305 181.525 8.36426 181.379 9.45801 181.379C11.0596 181.379 12.417 181.687 13.5303 182.302C14.6533 182.907 15.5078 183.703 16.0938 184.689C16.6797 185.666 16.9727 186.711 16.9727 187.824H14.1602C14.1602 187.023 13.9893 186.315 13.6475 185.7C13.3057 185.075 12.7881 184.587 12.0947 184.235C11.4014 183.874 10.5225 183.693 9.45801 183.693C8.45215 183.693 7.62207 183.845 6.96777 184.147C6.31348 184.45 5.8252 184.86 5.50293 185.378C5.19043 185.896 5.03418 186.486 5.03418 187.15C5.03418 187.6 5.12695 188.01 5.3125 188.381C5.50781 188.742 5.80566 189.079 6.20605 189.392C6.61621 189.704 7.13379 189.992 7.75879 190.256C8.39355 190.52 9.15039 190.773 10.0293 191.018C11.2402 191.359 12.2852 191.74 13.1641 192.16C14.043 192.58 14.7656 193.054 15.332 193.581C15.9082 194.099 16.333 194.689 16.6064 195.354C16.8896 196.008 17.0312 196.75 17.0312 197.58C17.0312 198.449 16.8555 199.235 16.5039 199.938C16.1523 200.642 15.6494 201.242 14.9951 201.74C14.3408 202.238 13.5547 202.624 12.6367 202.897C11.7285 203.161 10.7129 203.293 9.58984 203.293C8.60352 203.293 7.63184 203.156 6.6748 202.883C5.72754 202.609 4.86328 202.199 4.08203 201.652C3.31055 201.105 2.69043 200.432 2.22168 199.631C1.7627 198.82 1.5332 197.883 1.5332 196.818H4.3457C4.3457 197.551 4.4873 198.181 4.77051 198.708C5.05371 199.226 5.43945 199.655 5.92773 199.997C6.42578 200.339 6.9873 200.593 7.6123 200.759C8.24707 200.915 8.90625 200.993 9.58984 200.993C10.5762 200.993 11.4111 200.856 12.0947 200.583C12.7783 200.31 13.2959 199.919 13.6475 199.411C14.0088 198.903 14.1895 198.303 14.1895 197.609ZM22.9199 190.3V203H20.1953V187.15H22.7734L22.9199 190.3ZM22.3633 194.475L21.1035 194.431C21.1133 193.347 21.2549 192.346 21.5283 191.428C21.8018 190.5 22.207 189.694 22.7441 189.011C23.2812 188.327 23.9502 187.8 24.751 187.429C25.5518 187.048 26.4795 186.857 27.5342 186.857C28.2764 186.857 28.96 186.965 29.585 187.18C30.21 187.385 30.752 187.712 31.2109 188.161C31.6699 188.61 32.0264 189.187 32.2803 189.89C32.5342 190.593 32.6611 191.442 32.6611 192.438V203H29.9512V192.57C29.9512 191.74 29.8096 191.076 29.5264 190.578C29.2529 190.08 28.8623 189.719 28.3545 189.494C27.8467 189.26 27.251 189.143 26.5674 189.143C25.7666 189.143 25.0977 189.284 24.5605 189.567C24.0234 189.851 23.5938 190.241 23.2715 190.739C22.9492 191.237 22.7148 191.809 22.5684 192.453C22.4316 193.088 22.3633 193.762 22.3633 194.475ZM32.6318 192.98L30.8154 193.537C30.8252 192.668 30.9668 191.833 31.2402 191.032C31.5234 190.231 31.9287 189.519 32.4561 188.894C32.9932 188.269 33.6523 187.775 34.4336 187.414C35.2148 187.043 36.1084 186.857 37.1143 186.857C37.9639 186.857 38.7158 186.97 39.3701 187.194C40.0342 187.419 40.5908 187.766 41.04 188.234C41.499 188.693 41.8457 189.284 42.0801 190.007C42.3145 190.729 42.4316 191.589 42.4316 192.585V203H39.707V192.556C39.707 191.667 39.5654 190.979 39.2822 190.49C39.0088 189.992 38.6182 189.646 38.1104 189.45C37.6123 189.245 37.0166 189.143 36.3232 189.143C35.7275 189.143 35.2002 189.245 34.7412 189.45C34.2822 189.655 33.8965 189.938 33.584 190.3C33.2715 190.651 33.0322 191.057 32.8662 191.516C32.71 191.975 32.6318 192.463 32.6318 192.98ZM55.8789 200.29V192.131C55.8789 191.506 55.752 190.964 55.498 190.505C55.2539 190.036 54.8828 189.675 54.3848 189.421C53.8867 189.167 53.2715 189.04 52.5391 189.04C51.8555 189.04 51.2549 189.157 50.7373 189.392C50.2295 189.626 49.8291 189.934 49.5361 190.314C49.2529 190.695 49.1113 191.105 49.1113 191.545H46.4014C46.4014 190.979 46.5479 190.417 46.8408 189.86C47.1338 189.304 47.5537 188.801 48.1006 188.352C48.6572 187.893 49.3213 187.531 50.0928 187.268C50.874 186.994 51.7432 186.857 52.7002 186.857C53.8525 186.857 54.8682 187.053 55.7471 187.443C56.6357 187.834 57.3291 188.425 57.8271 189.216C58.335 189.997 58.5889 190.979 58.5889 192.16V199.543C58.5889 200.07 58.6328 200.632 58.7207 201.228C58.8184 201.823 58.96 202.336 59.1455 202.766V203H56.3184C56.1816 202.688 56.0742 202.272 55.9961 201.755C55.918 201.228 55.8789 200.739 55.8789 200.29ZM56.3477 193.391L56.377 195.295H53.6377C52.8662 195.295 52.1777 195.358 51.5723 195.485C50.9668 195.603 50.459 195.783 50.0488 196.027C49.6387 196.271 49.3262 196.579 49.1113 196.95C48.8965 197.312 48.7891 197.736 48.7891 198.225C48.7891 198.723 48.9014 199.177 49.126 199.587C49.3506 199.997 49.6875 200.324 50.1367 200.568C50.5957 200.803 51.1572 200.92 51.8213 200.92C52.6514 200.92 53.3838 200.744 54.0186 200.393C54.6533 200.041 55.1562 199.611 55.5273 199.104C55.9082 198.596 56.1133 198.103 56.1426 197.624L57.2998 198.928C57.2314 199.338 57.0459 199.792 56.7432 200.29C56.4404 200.788 56.0352 201.267 55.5273 201.726C55.0293 202.175 54.4336 202.551 53.7402 202.854C53.0566 203.146 52.2852 203.293 51.4258 203.293C50.3516 203.293 49.4092 203.083 48.5986 202.663C47.7979 202.243 47.1729 201.682 46.7236 200.979C46.2842 200.266 46.0645 199.47 46.0645 198.591C46.0645 197.741 46.2305 196.994 46.5625 196.35C46.8945 195.695 47.373 195.153 47.998 194.724C48.623 194.284 49.375 193.952 50.2539 193.728C51.1328 193.503 52.1143 193.391 53.1982 193.391H56.3477ZM65.7959 180.5V203H63.0713V180.5H65.7959ZM73.0908 180.5V203H70.3662V180.5H73.0908ZM91.5186 187.15V189.23H82.9492V187.15H91.5186ZM85.8496 183.298H88.5596V199.074C88.5596 199.611 88.6426 200.017 88.8086 200.29C88.9746 200.563 89.1895 200.744 89.4531 200.832C89.7168 200.92 90 200.964 90.3027 200.964C90.5273 200.964 90.7617 200.944 91.0059 200.905C91.2598 200.856 91.4502 200.817 91.5771 200.788L91.5918 203C91.377 203.068 91.0938 203.132 90.7422 203.19C90.4004 203.259 89.9854 203.293 89.4971 203.293C88.833 203.293 88.2227 203.161 87.666 202.897C87.1094 202.634 86.665 202.194 86.333 201.579C86.0107 200.954 85.8496 200.114 85.8496 199.06V183.298ZM104.043 200.29V192.131C104.043 191.506 103.916 190.964 103.662 190.505C103.418 190.036 103.047 189.675 102.549 189.421C102.051 189.167 101.436 189.04 100.703 189.04C100.02 189.04 99.4189 189.157 98.9014 189.392C98.3936 189.626 97.9932 189.934 97.7002 190.314C97.417 190.695 97.2754 191.105 97.2754 191.545H94.5654C94.5654 190.979 94.7119 190.417 95.0049 189.86C95.2979 189.304 95.7178 188.801 96.2646 188.352C96.8213 187.893 97.4854 187.531 98.2568 187.268C99.0381 186.994 99.9072 186.857 100.864 186.857C102.017 186.857 103.032 187.053 103.911 187.443C104.8 187.834 105.493 188.425 105.991 189.216C106.499 189.997 106.753 190.979 106.753 192.16V199.543C106.753 200.07 106.797 200.632 106.885 201.228C106.982 201.823 107.124 202.336 107.31 202.766V203H104.482C104.346 202.688 104.238 202.272 104.16 201.755C104.082 201.228 104.043 200.739 104.043 200.29ZM104.512 193.391L104.541 195.295H101.802C101.03 195.295 100.342 195.358 99.7363 195.485C99.1309 195.603 98.623 195.783 98.2129 196.027C97.8027 196.271 97.4902 196.579 97.2754 196.95C97.0605 197.312 96.9531 197.736 96.9531 198.225C96.9531 198.723 97.0654 199.177 97.29 199.587C97.5146 199.997 97.8516 200.324 98.3008 200.568C98.7598 200.803 99.3213 200.92 99.9854 200.92C100.815 200.92 101.548 200.744 102.183 200.393C102.817 200.041 103.32 199.611 103.691 199.104C104.072 198.596 104.277 198.103 104.307 197.624L105.464 198.928C105.396 199.338 105.21 199.792 104.907 200.29C104.604 200.788 104.199 201.267 103.691 201.726C103.193 202.175 102.598 202.551 101.904 202.854C101.221 203.146 100.449 203.293 99.5898 203.293C98.5156 203.293 97.5732 203.083 96.7627 202.663C95.9619 202.243 95.3369 201.682 94.8877 200.979C94.4482 200.266 94.2285 199.47 94.2285 198.591C94.2285 197.741 94.3945 196.994 94.7266 196.35C95.0586 195.695 95.5371 195.153 96.1621 194.724C96.7871 194.284 97.5391 193.952 98.418 193.728C99.2969 193.503 100.278 193.391 101.362 193.391H104.512ZM120.244 198.796C120.244 198.405 120.156 198.044 119.98 197.712C119.814 197.37 119.468 197.062 118.94 196.789C118.423 196.506 117.642 196.262 116.597 196.057C115.718 195.871 114.922 195.651 114.209 195.397C113.506 195.144 112.905 194.836 112.407 194.475C111.919 194.113 111.543 193.688 111.279 193.2C111.016 192.712 110.884 192.141 110.884 191.486C110.884 190.861 111.021 190.271 111.294 189.714C111.577 189.157 111.973 188.664 112.48 188.234C112.998 187.805 113.618 187.468 114.341 187.224C115.063 186.979 115.869 186.857 116.758 186.857C118.027 186.857 119.111 187.082 120.01 187.531C120.908 187.98 121.597 188.581 122.075 189.333C122.554 190.075 122.793 190.9 122.793 191.809H120.083C120.083 191.369 119.951 190.944 119.688 190.534C119.434 190.114 119.058 189.768 118.56 189.494C118.071 189.221 117.471 189.084 116.758 189.084C116.006 189.084 115.396 189.201 114.927 189.436C114.468 189.66 114.131 189.948 113.916 190.3C113.711 190.651 113.608 191.022 113.608 191.413C113.608 191.706 113.657 191.97 113.755 192.204C113.862 192.429 114.048 192.639 114.312 192.834C114.575 193.02 114.946 193.195 115.425 193.361C115.903 193.527 116.514 193.693 117.256 193.859C118.555 194.152 119.624 194.504 120.464 194.914C121.304 195.324 121.929 195.827 122.339 196.423C122.749 197.019 122.954 197.741 122.954 198.591C122.954 199.284 122.808 199.919 122.515 200.495C122.231 201.071 121.816 201.569 121.27 201.989C120.732 202.399 120.088 202.722 119.336 202.956C118.594 203.181 117.759 203.293 116.831 203.293C115.435 203.293 114.253 203.044 113.286 202.546C112.319 202.048 111.587 201.403 111.089 200.612C110.591 199.821 110.342 198.986 110.342 198.107H113.066C113.105 198.85 113.32 199.44 113.711 199.88C114.102 200.31 114.58 200.617 115.146 200.803C115.713 200.979 116.274 201.066 116.831 201.066C117.573 201.066 118.193 200.969 118.691 200.773C119.199 200.578 119.585 200.31 119.849 199.968C120.112 199.626 120.244 199.235 120.244 198.796ZM129.238 180.5V203H126.514V180.5H129.238ZM138.921 187.15L132.007 194.548L128.14 198.562L127.92 195.676L130.688 192.365L135.61 187.15H138.921ZM136.445 203L130.791 195.441L132.197 193.024L139.639 203H136.445Z" fill="black"/>
<path d="M44.2232 7.78577C40.8677 7.78577 37.6497 9.11872 35.277 11.4914C32.9044 13.8641 31.5714 17.0821 31.5714 20.4376V88.5625C31.5714 91.918 32.9044 95.136 35.277 97.5087C37.6497 99.8814 40.8677 101.214 44.2232 101.214H81.4701L73.0732 92.8174C72.2598 92.0041 71.6146 91.0385 71.1745 89.9758C70.7343 88.9131 70.5077 87.7742 70.5077 86.6239C70.5077 85.4737 70.7343 84.3347 71.1744 83.272C71.6146 82.2093 72.2598 81.2437 73.0732 80.4304C73.8865 79.617 74.8521 78.9718 75.9148 78.5317C76.9775 78.0915 78.1165 77.8649 79.2667 77.8649C80.4169 77.8649 81.5559 78.0915 82.6186 78.5317C83.6813 78.9718 84.6469 79.617 85.4602 80.4304L90.9375 85.9076L108.101 68.744C108.514 68.3314 108.958 67.9654 109.429 67.654V20.4376C109.429 17.0821 108.096 13.8641 105.723 11.4914C103.35 9.11872 100.132 7.78577 96.7768 7.78577H44.2232ZM56.875 34.0626C56.875 35.3531 56.3623 36.5908 55.4497 37.5034C54.5372 38.4159 53.2995 38.9286 52.0089 38.9286C50.7183 38.9286 49.4806 38.4159 48.5681 37.5034C47.6555 36.5908 47.1428 35.3531 47.1428 34.0626C47.1428 32.772 47.6555 31.5343 48.5681 30.6217C49.4806 29.7092 50.7183 29.1965 52.0089 29.1965C53.2995 29.1965 54.5372 29.7092 55.4497 30.6217C56.3623 31.5343 56.875 32.772 56.875 34.0626ZM52.0089 59.3661C50.7183 59.3661 49.4806 58.8534 48.5681 57.9409C47.6555 57.0283 47.1428 55.7906 47.1428 54.5C47.1428 53.2095 47.6555 51.9718 48.5681 51.0592C49.4806 50.1467 50.7183 49.634 52.0089 49.634C53.2995 49.634 54.5372 50.1467 55.4497 51.0592C56.3623 51.9718 56.875 53.2095 56.875 54.5C56.875 55.7906 56.3623 57.0283 55.4497 57.9409C54.5372 58.8534 53.2995 59.3661 52.0089 59.3661V59.3661ZM52.0089 79.8036C50.7183 79.8036 49.4806 79.2909 48.5681 78.3784C47.6555 77.4658 47.1428 76.2281 47.1428 74.9375C47.1428 73.647 47.6555 72.4093 48.5681 71.4967C49.4806 70.5841 50.7183 70.0715 52.0089 70.0715C53.2995 70.0715 54.5372 70.5841 55.4497 71.4967C56.3623 72.4093 56.875 73.647 56.875 74.9375C56.875 76.2281 56.3623 77.4658 55.4497 78.3784C54.5372 79.2909 53.2995 79.8036 52.0089 79.8036V79.8036ZM65.6339 31.1429H90.9375C91.7118 31.1429 92.4544 31.4505 93.002 31.9981C93.5495 32.5456 93.8571 33.2882 93.8571 34.0626C93.8571 34.8369 93.5495 35.5795 93.002 36.127C92.4544 36.6746 91.7118 36.9822 90.9375 36.9822H65.6339C64.8596 36.9822 64.117 36.6746 63.5694 36.127C63.0219 35.5795 62.7143 34.8369 62.7143 34.0626C62.7143 33.2882 63.0219 32.5456 63.5694 31.9981C64.117 31.4505 64.8596 31.1429 65.6339 31.1429V31.1429ZM62.7143 54.5C62.7143 53.7257 63.0219 52.9831 63.5694 52.4356C64.117 51.888 64.8596 51.5804 65.6339 51.5804H90.9375C91.7118 51.5804 92.4544 51.888 93.002 52.4356C93.5495 52.9831 93.8571 53.7257 93.8571 54.5C93.8571 55.2744 93.5495 56.017 93.002 56.5645C92.4544 57.1121 91.7118 57.4197 90.9375 57.4197H65.6339C64.8596 57.4197 64.117 57.1121 63.5694 56.5645C63.0219 56.017 62.7143 55.2744 62.7143 54.5V54.5ZM65.6339 72.0179H90.9375C91.7118 72.0179 92.4544 72.3255 93.002 72.873C93.5495 73.4206 93.8571 74.1632 93.8571 74.9375C93.8571 75.7119 93.5495 76.4545 93.002 77.002C92.4544 77.5496 91.7118 77.8572 90.9375 77.8572H65.6339C64.8596 77.8572 64.117 77.5496 63.5694 77.002C63.0219 76.4545 62.7143 75.7119 62.7143 74.9375C62.7143 74.1632 63.0219 73.4206 63.5694 72.873C64.117 72.3255 64.8596 72.0179 65.6339 72.0179ZM93.0007 100.358L116.358 77.0008C116.645 76.7335 116.875 76.4111 117.034 76.053C117.194 75.6949 117.28 75.3082 117.287 74.9162C117.294 74.5242 117.221 74.1348 117.075 73.7713C116.928 73.4077 116.709 73.0775 116.432 72.8002C116.155 72.523 115.824 72.3044 115.461 72.1576C115.097 72.0107 114.708 71.9386 114.316 71.9455C113.924 71.9524 113.537 72.0383 113.179 72.1978C112.821 72.3574 112.499 72.5875 112.231 72.8743L90.9375 94.1683L81.3299 84.5607C80.7764 84.045 80.0444 83.7642 79.288 83.7775C78.5316 83.7909 77.81 84.0973 77.275 84.6322C76.7401 85.1672 76.4337 85.8888 76.4203 86.6452C76.407 87.4016 76.6878 88.1336 77.2035 88.6871L88.8743 100.358C89.4217 100.905 90.1638 101.212 90.9375 101.212C91.7112 101.212 92.4533 100.905 93.0007 100.358V100.358Z" fill="#FF4F5A"/>
</svg>
