<svg width="1056" height="210" viewBox="0 0 1056 210" fill="none" xmlns="http://www.w3.org/2000/svg">
<path d="M19.1104 190.609C19.1104 190.111 19.0322 189.672 18.876 189.291C18.7295 188.9 18.4658 188.549 18.085 188.236C17.7139 187.924 17.1963 187.626 16.5322 187.343C15.8779 187.06 15.0479 186.771 14.042 186.479C12.9873 186.166 12.0352 185.819 11.1855 185.438C10.3359 185.048 9.6084 184.604 9.00293 184.105C8.39746 183.607 7.93359 183.036 7.61133 182.392C7.28906 181.747 7.12793 181.01 7.12793 180.18C7.12793 179.35 7.29883 178.583 7.64062 177.88C7.98242 177.177 8.4707 176.566 9.10547 176.049C9.75 175.521 10.5166 175.111 11.4053 174.818C12.2939 174.525 13.2852 174.379 14.3789 174.379C15.9805 174.379 17.3379 174.687 18.4512 175.302C19.5742 175.907 20.4287 176.703 21.0146 177.689C21.6006 178.666 21.8936 179.711 21.8936 180.824H19.0811C19.0811 180.023 18.9102 179.315 18.5684 178.7C18.2266 178.075 17.709 177.587 17.0156 177.235C16.3223 176.874 15.4434 176.693 14.3789 176.693C13.373 176.693 12.543 176.845 11.8887 177.147C11.2344 177.45 10.7461 177.86 10.4238 178.378C10.1113 178.896 9.95508 179.486 9.95508 180.15C9.95508 180.6 10.0479 181.01 10.2334 181.381C10.4287 181.742 10.7266 182.079 11.127 182.392C11.5371 182.704 12.0547 182.992 12.6797 183.256C13.3145 183.52 14.0713 183.773 14.9502 184.018C16.1611 184.359 17.2061 184.74 18.085 185.16C18.9639 185.58 19.6865 186.054 20.2529 186.581C20.8291 187.099 21.2539 187.689 21.5273 188.354C21.8105 189.008 21.9521 189.75 21.9521 190.58C21.9521 191.449 21.7764 192.235 21.4248 192.938C21.0732 193.642 20.5703 194.242 19.916 194.74C19.2617 195.238 18.4756 195.624 17.5576 195.897C16.6494 196.161 15.6338 196.293 14.5107 196.293C13.5244 196.293 12.5527 196.156 11.5957 195.883C10.6484 195.609 9.78418 195.199 9.00293 194.652C8.23145 194.105 7.61133 193.432 7.14258 192.631C6.68359 191.82 6.4541 190.883 6.4541 189.818H9.2666C9.2666 190.551 9.4082 191.181 9.69141 191.708C9.97461 192.226 10.3604 192.655 10.8486 192.997C11.3467 193.339 11.9082 193.593 12.5332 193.759C13.168 193.915 13.8271 193.993 14.5107 193.993C15.4971 193.993 16.332 193.856 17.0156 193.583C17.6992 193.31 18.2168 192.919 18.5684 192.411C18.9297 191.903 19.1104 191.303 19.1104 190.609ZM28.0898 180.15V196H25.3652V180.15H28.0898ZM25.1602 175.946C25.1602 175.507 25.292 175.136 25.5557 174.833C25.8291 174.53 26.2295 174.379 26.7568 174.379C27.2744 174.379 27.6699 174.53 27.9434 174.833C28.2266 175.136 28.3682 175.507 28.3682 175.946C28.3682 176.366 28.2266 176.728 27.9434 177.03C27.6699 177.323 27.2744 177.47 26.7568 177.47C26.2295 177.47 25.8291 177.323 25.5557 177.03C25.292 176.728 25.1602 176.366 25.1602 175.946ZM35.1357 183.3V196H32.4111V180.15H34.9893L35.1357 183.3ZM34.5791 187.475L33.3193 187.431C33.3291 186.347 33.4707 185.346 33.7441 184.428C34.0176 183.5 34.4229 182.694 34.96 182.011C35.4971 181.327 36.166 180.8 36.9668 180.429C37.7676 180.048 38.6953 179.857 39.75 179.857C40.4922 179.857 41.1758 179.965 41.8008 180.18C42.4258 180.385 42.9678 180.712 43.4268 181.161C43.8857 181.61 44.2422 182.187 44.4961 182.89C44.75 183.593 44.877 184.442 44.877 185.438V196H42.167V185.57C42.167 184.74 42.0254 184.076 41.7422 183.578C41.4688 183.08 41.0781 182.719 40.5703 182.494C40.0625 182.26 39.4668 182.143 38.7832 182.143C37.9824 182.143 37.3135 182.284 36.7764 182.567C36.2393 182.851 35.8096 183.241 35.4873 183.739C35.165 184.237 34.9307 184.809 34.7842 185.453C34.6475 186.088 34.5791 186.762 34.5791 187.475ZM44.8477 185.98L43.0312 186.537C43.041 185.668 43.1826 184.833 43.4561 184.032C43.7393 183.231 44.1445 182.519 44.6719 181.894C45.209 181.269 45.8682 180.775 46.6494 180.414C47.4307 180.043 48.3242 179.857 49.3301 179.857C50.1797 179.857 50.9316 179.97 51.5859 180.194C52.25 180.419 52.8066 180.766 53.2559 181.234C53.7148 181.693 54.0615 182.284 54.2959 183.007C54.5303 183.729 54.6475 184.589 54.6475 185.585V196H51.9229V185.556C51.9229 184.667 51.7812 183.979 51.498 183.49C51.2246 182.992 50.834 182.646 50.3262 182.45C49.8281 182.245 49.2324 182.143 48.5391 182.143C47.9434 182.143 47.416 182.245 46.957 182.45C46.498 182.655 46.1123 182.938 45.7998 183.3C45.4873 183.651 45.248 184.057 45.082 184.516C44.9258 184.975 44.8477 185.463 44.8477 185.98ZM61.459 183.197V202.094H58.7344V180.15H61.2246L61.459 183.197ZM72.1377 187.943V188.251C72.1377 189.403 72.001 190.473 71.7275 191.459C71.4541 192.436 71.0537 193.285 70.5264 194.008C70.0088 194.73 69.3691 195.292 68.6074 195.692C67.8457 196.093 66.9717 196.293 65.9854 196.293C64.9795 196.293 64.0908 196.127 63.3193 195.795C62.5479 195.463 61.8936 194.979 61.3564 194.345C60.8193 193.71 60.3896 192.948 60.0674 192.06C59.7549 191.171 59.54 190.17 59.4229 189.057V187.416C59.54 186.244 59.7598 185.194 60.082 184.267C60.4043 183.339 60.8291 182.548 61.3564 181.894C61.8936 181.229 62.543 180.727 63.3047 180.385C64.0664 180.033 64.9453 179.857 65.9414 179.857C66.9375 179.857 67.8213 180.053 68.5928 180.443C69.3643 180.824 70.0137 181.371 70.541 182.084C71.0684 182.797 71.4639 183.651 71.7275 184.647C72.001 185.634 72.1377 186.732 72.1377 187.943ZM69.4131 188.251V187.943C69.4131 187.152 69.3301 186.41 69.1641 185.717C68.998 185.014 68.7393 184.398 68.3877 183.871C68.0459 183.334 67.6064 182.914 67.0693 182.611C66.5322 182.299 65.8926 182.143 65.1504 182.143C64.4668 182.143 63.8711 182.26 63.3633 182.494C62.8652 182.729 62.4404 183.046 62.0889 183.446C61.7373 183.837 61.4492 184.286 61.2246 184.794C61.0098 185.292 60.8486 185.81 60.7412 186.347V190.141C60.9365 190.824 61.21 191.469 61.5615 192.074C61.9131 192.67 62.3818 193.153 62.9678 193.524C63.5537 193.886 64.291 194.066 65.1797 194.066C65.9121 194.066 66.542 193.915 67.0693 193.612C67.6064 193.3 68.0459 192.875 68.3877 192.338C68.7393 191.801 68.998 191.186 69.1641 190.492C69.3301 189.789 69.4131 189.042 69.4131 188.251ZM78.5391 173.5V196H75.8145V173.5H78.5391ZM89.4668 196.293C88.3633 196.293 87.3623 196.107 86.4639 195.736C85.5752 195.355 84.8086 194.823 84.1641 194.14C83.5293 193.456 83.041 192.646 82.6992 191.708C82.3574 190.771 82.1865 189.745 82.1865 188.632V188.017C82.1865 186.728 82.377 185.58 82.7578 184.574C83.1387 183.559 83.6562 182.699 84.3105 181.996C84.9648 181.293 85.707 180.761 86.5371 180.399C87.3672 180.038 88.2266 179.857 89.1152 179.857C90.248 179.857 91.2246 180.053 92.0449 180.443C92.875 180.834 93.5537 181.381 94.0811 182.084C94.6084 182.777 94.999 183.598 95.2529 184.545C95.5068 185.482 95.6338 186.508 95.6338 187.621V188.837H83.7979V186.625H92.9238V186.42C92.8848 185.717 92.7383 185.033 92.4844 184.369C92.2402 183.705 91.8496 183.158 91.3125 182.729C90.7754 182.299 90.043 182.084 89.1152 182.084C88.5 182.084 87.9336 182.216 87.416 182.479C86.8984 182.733 86.4541 183.114 86.083 183.622C85.7119 184.13 85.4238 184.75 85.2188 185.482C85.0137 186.215 84.9111 187.06 84.9111 188.017V188.632C84.9111 189.384 85.0137 190.092 85.2188 190.756C85.4336 191.41 85.7412 191.986 86.1416 192.484C86.5518 192.982 87.0449 193.373 87.6211 193.656C88.207 193.939 88.8711 194.081 89.6133 194.081C90.5703 194.081 91.3809 193.886 92.0449 193.495C92.709 193.104 93.29 192.582 93.7881 191.928L95.4287 193.231C95.0869 193.749 94.6523 194.242 94.125 194.711C93.5977 195.18 92.9482 195.561 92.1768 195.854C91.415 196.146 90.5117 196.293 89.4668 196.293Z" fill="black"/>
<path d="M28.2232 7.78577C24.8677 7.78577 21.6497 9.11872 19.277 11.4914C16.9044 13.8641 15.5714 17.0821 15.5714 20.4376V88.5625C15.5714 91.918 16.9044 95.136 19.277 97.5087C21.6497 99.8814 24.8677 101.214 28.2232 101.214H65.4701L57.0732 92.8174C56.2598 92.0041 55.6146 91.0385 55.1745 89.9758C54.7343 88.9131 54.5077 87.7742 54.5077 86.6239C54.5077 85.4737 54.7343 84.3347 55.1744 83.272C55.6146 82.2093 56.2598 81.2437 57.0732 80.4304C57.8865 79.617 58.8521 78.9718 59.9148 78.5317C60.9775 78.0915 62.1165 77.8649 63.2667 77.8649C64.4169 77.8649 65.5559 78.0915 66.6186 78.5317C67.6813 78.9718 68.6469 79.617 69.4602 80.4304L74.9375 85.9076L92.1011 68.744C92.5137 68.3314 92.9575 67.9654 93.4286 67.654V20.4376C93.4286 17.0821 92.0956 13.8641 89.7229 11.4914C87.3503 9.11872 84.1322 7.78577 80.7768 7.78577H28.2232ZM40.875 34.0626C40.875 35.3531 40.3623 36.5908 39.4497 37.5034C38.5372 38.4159 37.2995 38.9286 36.0089 38.9286C34.7183 38.9286 33.4806 38.4159 32.5681 37.5034C31.6555 36.5908 31.1428 35.3531 31.1428 34.0626C31.1428 32.772 31.6555 31.5343 32.5681 30.6217C33.4806 29.7092 34.7183 29.1965 36.0089 29.1965C37.2995 29.1965 38.5372 29.7092 39.4497 30.6217C40.3623 31.5343 40.875 32.772 40.875 34.0626ZM36.0089 59.3661C34.7183 59.3661 33.4806 58.8534 32.5681 57.9409C31.6555 57.0283 31.1428 55.7906 31.1428 54.5C31.1428 53.2095 31.6555 51.9718 32.5681 51.0592C33.4806 50.1467 34.7183 49.634 36.0089 49.634C37.2995 49.634 38.5372 50.1467 39.4497 51.0592C40.3623 51.9718 40.875 53.2095 40.875 54.5C40.875 55.7906 40.3623 57.0283 39.4497 57.9409C38.5372 58.8534 37.2995 59.3661 36.0089 59.3661V59.3661ZM36.0089 79.8036C34.7183 79.8036 33.4806 79.2909 32.5681 78.3784C31.6555 77.4658 31.1428 76.2281 31.1428 74.9375C31.1428 73.647 31.6555 72.4093 32.5681 71.4967C33.4806 70.5841 34.7183 70.0715 36.0089 70.0715C37.2995 70.0715 38.5372 70.5841 39.4497 71.4967C40.3623 72.4093 40.875 73.647 40.875 74.9375C40.875 76.2281 40.3623 77.4658 39.4497 78.3784C38.5372 79.2909 37.2995 79.8036 36.0089 79.8036V79.8036ZM49.6339 31.1429H74.9375C75.7118 31.1429 76.4544 31.4505 77.002 31.9981C77.5495 32.5456 77.8571 33.2882 77.8571 34.0626C77.8571 34.8369 77.5495 35.5795 77.002 36.127C76.4544 36.6746 75.7118 36.9822 74.9375 36.9822H49.6339C48.8596 36.9822 48.117 36.6746 47.5694 36.127C47.0219 35.5795 46.7143 34.8369 46.7143 34.0626C46.7143 33.2882 47.0219 32.5456 47.5694 31.9981C48.117 31.4505 48.8596 31.1429 49.6339 31.1429V31.1429ZM46.7143 54.5C46.7143 53.7257 47.0219 52.9831 47.5694 52.4356C48.117 51.888 48.8596 51.5804 49.6339 51.5804H74.9375C75.7118 51.5804 76.4544 51.888 77.002 52.4356C77.5495 52.9831 77.8571 53.7257 77.8571 54.5C77.8571 55.2744 77.5495 56.017 77.002 56.5645C76.4544 57.1121 75.7118 57.4197 74.9375 57.4197H49.6339C48.8596 57.4197 48.117 57.1121 47.5694 56.5645C47.0219 56.017 46.7143 55.2744 46.7143 54.5V54.5ZM49.6339 72.0179H74.9375C75.7118 72.0179 76.4544 72.3255 77.002 72.873C77.5495 73.4206 77.8571 74.1632 77.8571 74.9375C77.8571 75.7119 77.5495 76.4545 77.002 77.002C76.4544 77.5496 75.7118 77.8572 74.9375 77.8572H49.6339C48.8596 77.8572 48.117 77.5496 47.5694 77.002C47.0219 76.4545 46.7143 75.7119 46.7143 74.9375C46.7143 74.1632 47.0219 73.4206 47.5694 72.873C48.117 72.3255 48.8596 72.0179 49.6339 72.0179ZM77.0007 100.358L100.358 77.0008C100.645 76.7335 100.875 76.4111 101.034 76.053C101.194 75.6949 101.28 75.3082 101.287 74.9162C101.294 74.5242 101.221 74.1348 101.075 73.7713C100.928 73.4077 100.709 73.0775 100.432 72.8002C100.155 72.523 99.8245 72.3044 99.4609 72.1576C99.0974 72.0107 98.708 71.9386 98.3159 71.9455C97.9239 71.9524 97.5373 72.0383 97.1792 72.1978C96.821 72.3574 96.4987 72.5875 96.2314 72.8743L74.9375 94.1683L65.3299 84.5607C64.7764 84.045 64.0444 83.7642 63.288 83.7775C62.5316 83.7909 61.81 84.0973 61.275 84.6322C60.7401 85.1672 60.4337 85.8888 60.4203 86.6452C60.407 87.4016 60.6878 88.1336 61.2035 88.6871L72.8743 100.358C73.4217 100.905 74.1638 101.212 74.9375 101.212C75.7112 101.212 76.4533 100.905 77.0007 100.358V100.358Z" fill="#FF4F5A"/>
<path d="M321.882 181.672V203H319.04L308.303 186.55V203H305.476V181.672H308.303L319.084 198.166V181.672H321.882ZM325.764 195.251V194.914C325.764 193.771 325.93 192.712 326.262 191.735C326.594 190.749 327.072 189.895 327.697 189.172C328.322 188.439 329.079 187.873 329.968 187.473C330.856 187.062 331.853 186.857 332.956 186.857C334.069 186.857 335.07 187.062 335.959 187.473C336.857 187.873 337.619 188.439 338.244 189.172C338.879 189.895 339.362 190.749 339.694 191.735C340.026 192.712 340.192 193.771 340.192 194.914V195.251C340.192 196.394 340.026 197.453 339.694 198.43C339.362 199.406 338.879 200.261 338.244 200.993C337.619 201.716 336.862 202.282 335.974 202.692C335.095 203.093 334.099 203.293 332.985 203.293C331.872 203.293 330.871 203.093 329.982 202.692C329.094 202.282 328.332 201.716 327.697 200.993C327.072 200.261 326.594 199.406 326.262 198.43C325.93 197.453 325.764 196.394 325.764 195.251ZM328.474 194.914V195.251C328.474 196.042 328.566 196.789 328.752 197.492C328.938 198.186 329.216 198.801 329.587 199.338C329.968 199.875 330.441 200.3 331.008 200.612C331.574 200.915 332.233 201.066 332.985 201.066C333.728 201.066 334.377 200.915 334.934 200.612C335.5 200.3 335.969 199.875 336.34 199.338C336.711 198.801 336.989 198.186 337.175 197.492C337.37 196.789 337.468 196.042 337.468 195.251V194.914C337.468 194.133 337.37 193.396 337.175 192.702C336.989 191.999 336.706 191.379 336.325 190.842C335.954 190.295 335.485 189.865 334.919 189.553C334.362 189.24 333.708 189.084 332.956 189.084C332.214 189.084 331.56 189.24 330.993 189.553C330.437 189.865 329.968 190.295 329.587 190.842C329.216 191.379 328.938 191.999 328.752 192.702C328.566 193.396 328.474 194.133 328.474 194.914ZM350.227 187.15V189.23H341.657V187.15H350.227ZM344.558 183.298H347.268V199.074C347.268 199.611 347.351 200.017 347.517 200.29C347.683 200.563 347.897 200.744 348.161 200.832C348.425 200.92 348.708 200.964 349.011 200.964C349.235 200.964 349.47 200.944 349.714 200.905C349.968 200.856 350.158 200.817 350.285 200.788L350.3 203C350.085 203.068 349.802 203.132 349.45 203.19C349.108 203.259 348.693 203.293 348.205 203.293C347.541 203.293 346.931 203.161 346.374 202.897C345.817 202.634 345.373 202.194 345.041 201.579C344.719 200.954 344.558 200.114 344.558 199.06V183.298ZM359.982 203.293C358.879 203.293 357.878 203.107 356.979 202.736C356.091 202.355 355.324 201.823 354.68 201.14C354.045 200.456 353.557 199.646 353.215 198.708C352.873 197.771 352.702 196.745 352.702 195.632V195.017C352.702 193.728 352.893 192.58 353.273 191.574C353.654 190.559 354.172 189.699 354.826 188.996C355.48 188.293 356.223 187.761 357.053 187.399C357.883 187.038 358.742 186.857 359.631 186.857C360.764 186.857 361.74 187.053 362.561 187.443C363.391 187.834 364.069 188.381 364.597 189.084C365.124 189.777 365.515 190.598 365.769 191.545C366.022 192.482 366.149 193.508 366.149 194.621V195.837H354.313V193.625H363.439V193.42C363.4 192.717 363.254 192.033 363 191.369C362.756 190.705 362.365 190.158 361.828 189.729C361.291 189.299 360.559 189.084 359.631 189.084C359.016 189.084 358.449 189.216 357.932 189.479C357.414 189.733 356.97 190.114 356.599 190.622C356.228 191.13 355.939 191.75 355.734 192.482C355.529 193.215 355.427 194.06 355.427 195.017V195.632C355.427 196.384 355.529 197.092 355.734 197.756C355.949 198.41 356.257 198.986 356.657 199.484C357.067 199.982 357.561 200.373 358.137 200.656C358.723 200.939 359.387 201.081 360.129 201.081C361.086 201.081 361.896 200.886 362.561 200.495C363.225 200.104 363.806 199.582 364.304 198.928L365.944 200.231C365.603 200.749 365.168 201.242 364.641 201.711C364.113 202.18 363.464 202.561 362.692 202.854C361.931 203.146 361.027 203.293 359.982 203.293ZM381.12 200.773V203H369.592V200.773H381.12ZM380.695 189.069L370.207 203H368.552V201.008L378.967 187.15H380.695V189.069ZM379.494 187.15V189.392H368.669V187.15H379.494ZM389.836 192.819V195.046H382.688V192.819H389.836ZM395.432 180.5V203H392.707V180.5H395.432ZM406.359 203.293C405.256 203.293 404.255 203.107 403.356 202.736C402.468 202.355 401.701 201.823 401.057 201.14C400.422 200.456 399.934 199.646 399.592 198.708C399.25 197.771 399.079 196.745 399.079 195.632V195.017C399.079 193.728 399.27 192.58 399.65 191.574C400.031 190.559 400.549 189.699 401.203 188.996C401.857 188.293 402.6 187.761 403.43 187.399C404.26 187.038 405.119 186.857 406.008 186.857C407.141 186.857 408.117 187.053 408.938 187.443C409.768 187.834 410.446 188.381 410.974 189.084C411.501 189.777 411.892 190.598 412.146 191.545C412.399 192.482 412.526 193.508 412.526 194.621V195.837H400.69V193.625H409.816V193.42C409.777 192.717 409.631 192.033 409.377 191.369C409.133 190.705 408.742 190.158 408.205 189.729C407.668 189.299 406.936 189.084 406.008 189.084C405.393 189.084 404.826 189.216 404.309 189.479C403.791 189.733 403.347 190.114 402.976 190.622C402.604 191.13 402.316 191.75 402.111 192.482C401.906 193.215 401.804 194.06 401.804 195.017V195.632C401.804 196.384 401.906 197.092 402.111 197.756C402.326 198.41 402.634 198.986 403.034 199.484C403.444 199.982 403.938 200.373 404.514 200.656C405.1 200.939 405.764 201.081 406.506 201.081C407.463 201.081 408.273 200.886 408.938 200.495C409.602 200.104 410.183 199.582 410.681 198.928L412.321 200.231C411.979 200.749 411.545 201.242 411.018 201.711C410.49 202.18 409.841 202.561 409.069 202.854C408.308 203.146 407.404 203.293 406.359 203.293Z" fill="black"/>
<path d="M404.917 19.3778L393.714 8.17502C392.751 7.25692 391.472 6.74475 390.141 6.74475C388.811 6.74475 387.531 7.25692 386.568 8.17502L376.607 18.1667H323.167C321.561 18.1667 320.02 18.8047 318.885 19.9403C317.749 21.076 317.111 22.6162 317.111 24.2222V90.8334C317.111 92.4394 317.749 93.9796 318.885 95.1153C320.02 96.2509 321.561 96.8889 323.167 96.8889H389.778C391.384 96.8889 392.924 96.2509 394.06 95.1153C395.195 93.9796 395.833 92.4394 395.833 90.8334V35.6067L404.917 26.5234C405.863 25.5753 406.395 24.2903 406.395 22.9506C406.395 21.6108 405.863 20.3258 404.917 19.3778V19.3778ZM362.013 60.9492L349.327 63.765L352.354 51.1997L381.27 22.2239L391.049 32.0036L362.013 60.9492ZM394.319 28.552L384.54 18.7722L390.141 13.1708L399.921 22.9506L394.319 28.552Z" fill="#FF4F5A"/>
<path d="M631.303 181.672V203H628.476V181.672H631.303ZM640.238 191.267V193.581H630.688V191.267H640.238ZM641.688 181.672V183.986H630.688V181.672H641.688ZM653.495 200.29V192.131C653.495 191.506 653.368 190.964 653.114 190.505C652.87 190.036 652.499 189.675 652.001 189.421C651.503 189.167 650.888 189.04 650.155 189.04C649.472 189.04 648.871 189.157 648.354 189.392C647.846 189.626 647.445 189.934 647.152 190.314C646.869 190.695 646.728 191.105 646.728 191.545H644.018C644.018 190.979 644.164 190.417 644.457 189.86C644.75 189.304 645.17 188.801 645.717 188.352C646.273 187.893 646.938 187.531 647.709 187.268C648.49 186.994 649.359 186.857 650.316 186.857C651.469 186.857 652.484 187.053 653.363 187.443C654.252 187.834 654.945 188.425 655.443 189.216C655.951 189.997 656.205 190.979 656.205 192.16V199.543C656.205 200.07 656.249 200.632 656.337 201.228C656.435 201.823 656.576 202.336 656.762 202.766V203H653.935C653.798 202.688 653.69 202.272 653.612 201.755C653.534 201.228 653.495 200.739 653.495 200.29ZM653.964 193.391L653.993 195.295H651.254C650.482 195.295 649.794 195.358 649.188 195.485C648.583 195.603 648.075 195.783 647.665 196.027C647.255 196.271 646.942 196.579 646.728 196.95C646.513 197.312 646.405 197.736 646.405 198.225C646.405 198.723 646.518 199.177 646.742 199.587C646.967 199.997 647.304 200.324 647.753 200.568C648.212 200.803 648.773 200.92 649.438 200.92C650.268 200.92 651 200.744 651.635 200.393C652.27 200.041 652.772 199.611 653.144 199.104C653.524 198.596 653.729 198.103 653.759 197.624L654.916 198.928C654.848 199.338 654.662 199.792 654.359 200.29C654.057 200.788 653.651 201.267 653.144 201.726C652.646 202.175 652.05 202.551 651.356 202.854C650.673 203.146 649.901 203.293 649.042 203.293C647.968 203.293 647.025 203.083 646.215 202.663C645.414 202.243 644.789 201.682 644.34 200.979C643.9 200.266 643.681 199.47 643.681 198.591C643.681 197.741 643.847 196.994 644.179 196.35C644.511 195.695 644.989 195.153 645.614 194.724C646.239 194.284 646.991 193.952 647.87 193.728C648.749 193.503 649.73 193.391 650.814 193.391H653.964ZM663.412 187.15V203H660.688V187.15H663.412ZM660.482 182.946C660.482 182.507 660.614 182.136 660.878 181.833C661.151 181.53 661.552 181.379 662.079 181.379C662.597 181.379 662.992 181.53 663.266 181.833C663.549 182.136 663.69 182.507 663.69 182.946C663.69 183.366 663.549 183.728 663.266 184.03C662.992 184.323 662.597 184.47 662.079 184.47C661.552 184.47 661.151 184.323 660.878 184.03C660.614 183.728 660.482 183.366 660.482 182.946ZM676.991 198.796C676.991 198.405 676.903 198.044 676.728 197.712C676.562 197.37 676.215 197.062 675.688 196.789C675.17 196.506 674.389 196.262 673.344 196.057C672.465 195.871 671.669 195.651 670.956 195.397C670.253 195.144 669.652 194.836 669.154 194.475C668.666 194.113 668.29 193.688 668.026 193.2C667.763 192.712 667.631 192.141 667.631 191.486C667.631 190.861 667.768 190.271 668.041 189.714C668.324 189.157 668.72 188.664 669.228 188.234C669.745 187.805 670.365 187.468 671.088 187.224C671.811 186.979 672.616 186.857 673.505 186.857C674.774 186.857 675.858 187.082 676.757 187.531C677.655 187.98 678.344 188.581 678.822 189.333C679.301 190.075 679.54 190.9 679.54 191.809H676.83C676.83 191.369 676.698 190.944 676.435 190.534C676.181 190.114 675.805 189.768 675.307 189.494C674.818 189.221 674.218 189.084 673.505 189.084C672.753 189.084 672.143 189.201 671.674 189.436C671.215 189.66 670.878 189.948 670.663 190.3C670.458 190.651 670.355 191.022 670.355 191.413C670.355 191.706 670.404 191.97 670.502 192.204C670.609 192.429 670.795 192.639 671.059 192.834C671.322 193.02 671.693 193.195 672.172 193.361C672.65 193.527 673.261 193.693 674.003 193.859C675.302 194.152 676.371 194.504 677.211 194.914C678.051 195.324 678.676 195.827 679.086 196.423C679.496 197.019 679.701 197.741 679.701 198.591C679.701 199.284 679.555 199.919 679.262 200.495C678.979 201.071 678.563 201.569 678.017 201.989C677.479 202.399 676.835 202.722 676.083 202.956C675.341 203.181 674.506 203.293 673.578 203.293C672.182 203.293 671 203.044 670.033 202.546C669.066 202.048 668.334 201.403 667.836 200.612C667.338 199.821 667.089 198.986 667.089 198.107H669.813C669.853 198.85 670.067 199.44 670.458 199.88C670.849 200.31 671.327 200.617 671.894 200.803C672.46 200.979 673.021 201.066 673.578 201.066C674.32 201.066 674.94 200.969 675.438 200.773C675.946 200.578 676.332 200.31 676.596 199.968C676.859 199.626 676.991 199.235 676.991 198.796ZM688.9 192.819V195.046H681.752V192.819H688.9ZM694.496 180.5V203H691.771V180.5H694.496ZM705.424 203.293C704.32 203.293 703.319 203.107 702.421 202.736C701.532 202.355 700.766 201.823 700.121 201.14C699.486 200.456 698.998 199.646 698.656 198.708C698.314 197.771 698.144 196.745 698.144 195.632V195.017C698.144 193.728 698.334 192.58 698.715 191.574C699.096 190.559 699.613 189.699 700.268 188.996C700.922 188.293 701.664 187.761 702.494 187.399C703.324 187.038 704.184 186.857 705.072 186.857C706.205 186.857 707.182 187.053 708.002 187.443C708.832 187.834 709.511 188.381 710.038 189.084C710.565 189.777 710.956 190.598 711.21 191.545C711.464 192.482 711.591 193.508 711.591 194.621V195.837H699.755V193.625H708.881V193.42C708.842 192.717 708.695 192.033 708.441 191.369C708.197 190.705 707.807 190.158 707.27 189.729C706.732 189.299 706 189.084 705.072 189.084C704.457 189.084 703.891 189.216 703.373 189.479C702.855 189.733 702.411 190.114 702.04 190.622C701.669 191.13 701.381 191.75 701.176 192.482C700.971 193.215 700.868 194.06 700.868 195.017V195.632C700.868 196.384 700.971 197.092 701.176 197.756C701.391 198.41 701.698 198.986 702.099 199.484C702.509 199.982 703.002 200.373 703.578 200.656C704.164 200.939 704.828 201.081 705.57 201.081C706.527 201.081 707.338 200.886 708.002 200.495C708.666 200.104 709.247 199.582 709.745 198.928L711.386 200.231C711.044 200.749 710.609 201.242 710.082 201.711C709.555 202.18 708.905 202.561 708.134 202.854C707.372 203.146 706.469 203.293 705.424 203.293Z" fill="black"/>
<path d="M694.75 49.9584C701.517 49.9584 707.785 52.093 712.917 55.6809V36.3334C712.917 31.2921 708.875 27.25 703.833 27.25H685.667V18.1667C685.667 13.1255 681.625 9.08337 676.583 9.08337H658.417C653.375 9.08337 649.333 13.1255 649.333 18.1667V27.25H631.167C626.125 27.25 622.129 31.2921 622.129 36.3334L622.083 86.2917C622.083 91.333 626.125 95.375 631.167 95.375H666.047C663.742 90.5314 662.702 85.1832 663.023 79.8291C663.343 74.4749 665.014 69.289 667.88 64.7548C670.745 60.2207 674.712 56.4859 679.411 53.8986C684.109 51.3113 689.386 49.9558 694.75 49.9584V49.9584ZM658.417 18.1667H676.583V27.25H658.417V18.1667Z" fill="#FF4F5A"/>
<path d="M694.75 59.0416C682.215 59.0416 672.042 69.215 672.042 81.75C672.042 94.285 682.215 104.458 694.75 104.458C707.285 104.458 717.458 94.285 717.458 81.75C717.458 69.215 707.285 59.0416 694.75 59.0416ZM702.244 92.4229L692.479 82.6583V68.125H697.021V80.7962L705.423 89.1983L702.244 92.4229V92.4229Z" fill="#FF4F5A"/>
<path d="M942.476 181.672H949.536C951.138 181.672 952.49 181.916 953.594 182.404C954.707 182.893 955.552 183.615 956.128 184.572C956.714 185.52 957.007 186.687 957.007 188.073C957.007 189.05 956.807 189.943 956.406 190.754C956.016 191.555 955.449 192.238 954.707 192.805C953.975 193.361 953.096 193.776 952.07 194.05L951.279 194.357H944.644L944.614 192.058H949.624C950.64 192.058 951.484 191.882 952.158 191.53C952.832 191.169 953.34 190.686 953.682 190.08C954.023 189.475 954.194 188.806 954.194 188.073C954.194 187.253 954.033 186.535 953.711 185.92C953.389 185.305 952.881 184.831 952.188 184.499C951.504 184.157 950.62 183.986 949.536 183.986H945.303V203H942.476V181.672ZM954.941 203L949.756 193.332L952.7 193.317L957.959 202.824V203H954.941ZM967.129 203.293C966.025 203.293 965.024 203.107 964.126 202.736C963.237 202.355 962.471 201.823 961.826 201.14C961.191 200.456 960.703 199.646 960.361 198.708C960.02 197.771 959.849 196.745 959.849 195.632V195.017C959.849 193.728 960.039 192.58 960.42 191.574C960.801 190.559 961.318 189.699 961.973 188.996C962.627 188.293 963.369 187.761 964.199 187.399C965.029 187.038 965.889 186.857 966.777 186.857C967.91 186.857 968.887 187.053 969.707 187.443C970.537 187.834 971.216 188.381 971.743 189.084C972.271 189.777 972.661 190.598 972.915 191.545C973.169 192.482 973.296 193.508 973.296 194.621V195.837H961.46V193.625H970.586V193.42C970.547 192.717 970.4 192.033 970.146 191.369C969.902 190.705 969.512 190.158 968.975 189.729C968.438 189.299 967.705 189.084 966.777 189.084C966.162 189.084 965.596 189.216 965.078 189.479C964.561 189.733 964.116 190.114 963.745 190.622C963.374 191.13 963.086 191.75 962.881 192.482C962.676 193.215 962.573 194.06 962.573 195.017V195.632C962.573 196.384 962.676 197.092 962.881 197.756C963.096 198.41 963.403 198.986 963.804 199.484C964.214 199.982 964.707 200.373 965.283 200.656C965.869 200.939 966.533 201.081 967.275 201.081C968.232 201.081 969.043 200.886 969.707 200.495C970.371 200.104 970.952 199.582 971.45 198.928L973.091 200.231C972.749 200.749 972.314 201.242 971.787 201.711C971.26 202.18 970.61 202.561 969.839 202.854C969.077 203.146 968.174 203.293 967.129 203.293ZM980.503 203H977.793V185.48C977.793 184.338 977.998 183.376 978.408 182.595C978.828 181.804 979.429 181.208 980.21 180.808C980.991 180.397 981.919 180.192 982.993 180.192C983.306 180.192 983.618 180.212 983.931 180.251C984.253 180.29 984.565 180.349 984.868 180.427L984.722 182.639C984.517 182.59 984.282 182.556 984.019 182.536C983.765 182.517 983.511 182.507 983.257 182.507C982.681 182.507 982.183 182.624 981.763 182.858C981.353 183.083 981.04 183.415 980.825 183.854C980.61 184.294 980.503 184.836 980.503 185.48V203ZM983.872 187.15V189.23H975.288V187.15H983.872ZM996.235 200.29V192.131C996.235 191.506 996.108 190.964 995.854 190.505C995.61 190.036 995.239 189.675 994.741 189.421C994.243 189.167 993.628 189.04 992.896 189.04C992.212 189.04 991.611 189.157 991.094 189.392C990.586 189.626 990.186 189.934 989.893 190.314C989.609 190.695 989.468 191.105 989.468 191.545H986.758C986.758 190.979 986.904 190.417 987.197 189.86C987.49 189.304 987.91 188.801 988.457 188.352C989.014 187.893 989.678 187.531 990.449 187.268C991.23 186.994 992.1 186.857 993.057 186.857C994.209 186.857 995.225 187.053 996.104 187.443C996.992 187.834 997.686 188.425 998.184 189.216C998.691 189.997 998.945 190.979 998.945 192.16V199.543C998.945 200.07 998.989 200.632 999.077 201.228C999.175 201.823 999.316 202.336 999.502 202.766V203H996.675C996.538 202.688 996.431 202.272 996.353 201.755C996.274 201.228 996.235 200.739 996.235 200.29ZM996.704 193.391L996.733 195.295H993.994C993.223 195.295 992.534 195.358 991.929 195.485C991.323 195.603 990.815 195.783 990.405 196.027C989.995 196.271 989.683 196.579 989.468 196.95C989.253 197.312 989.146 197.736 989.146 198.225C989.146 198.723 989.258 199.177 989.482 199.587C989.707 199.997 990.044 200.324 990.493 200.568C990.952 200.803 991.514 200.92 992.178 200.92C993.008 200.92 993.74 200.744 994.375 200.393C995.01 200.041 995.513 199.611 995.884 199.104C996.265 198.596 996.47 198.103 996.499 197.624L997.656 198.928C997.588 199.338 997.402 199.792 997.1 200.29C996.797 200.788 996.392 201.267 995.884 201.726C995.386 202.175 994.79 202.551 994.097 202.854C993.413 203.146 992.642 203.293 991.782 203.293C990.708 203.293 989.766 203.083 988.955 202.663C988.154 202.243 987.529 201.682 987.08 200.979C986.641 200.266 986.421 199.47 986.421 198.591C986.421 197.741 986.587 196.994 986.919 196.35C987.251 195.695 987.729 195.153 988.354 194.724C988.979 194.284 989.731 193.952 990.61 193.728C991.489 193.503 992.471 193.391 993.555 193.391H996.704ZM1006.15 187.15V203H1003.43V187.15H1006.15ZM1003.22 182.946C1003.22 182.507 1003.35 182.136 1003.62 181.833C1003.89 181.53 1004.29 181.379 1004.82 181.379C1005.34 181.379 1005.73 181.53 1006.01 181.833C1006.29 182.136 1006.43 182.507 1006.43 182.946C1006.43 183.366 1006.29 183.728 1006.01 184.03C1005.73 184.323 1005.34 184.47 1004.82 184.47C1004.29 184.47 1003.89 184.323 1003.62 184.03C1003.35 183.728 1003.22 183.366 1003.22 182.946ZM1019.73 198.796C1019.73 198.405 1019.64 198.044 1019.47 197.712C1019.3 197.37 1018.96 197.062 1018.43 196.789C1017.91 196.506 1017.13 196.262 1016.08 196.057C1015.21 195.871 1014.41 195.651 1013.7 195.397C1012.99 195.144 1012.39 194.836 1011.89 194.475C1011.41 194.113 1011.03 193.688 1010.77 193.2C1010.5 192.712 1010.37 192.141 1010.37 191.486C1010.37 190.861 1010.51 190.271 1010.78 189.714C1011.06 189.157 1011.46 188.664 1011.97 188.234C1012.49 187.805 1013.11 187.468 1013.83 187.224C1014.55 186.979 1015.36 186.857 1016.25 186.857C1017.51 186.857 1018.6 187.082 1019.5 187.531C1020.4 187.98 1021.08 188.581 1021.56 189.333C1022.04 190.075 1022.28 190.9 1022.28 191.809H1019.57C1019.57 191.369 1019.44 190.944 1019.17 190.534C1018.92 190.114 1018.54 189.768 1018.05 189.494C1017.56 189.221 1016.96 189.084 1016.25 189.084C1015.49 189.084 1014.88 189.201 1014.41 189.436C1013.96 189.66 1013.62 189.948 1013.4 190.3C1013.2 190.651 1013.1 191.022 1013.1 191.413C1013.1 191.706 1013.14 191.97 1013.24 192.204C1013.35 192.429 1013.54 192.639 1013.8 192.834C1014.06 193.02 1014.43 193.195 1014.91 193.361C1015.39 193.527 1016 193.693 1016.74 193.859C1018.04 194.152 1019.11 194.504 1019.95 194.914C1020.79 195.324 1021.42 195.827 1021.83 196.423C1022.24 197.019 1022.44 197.741 1022.44 198.591C1022.44 199.284 1022.29 199.919 1022 200.495C1021.72 201.071 1021.3 201.569 1020.76 201.989C1020.22 202.399 1019.58 202.722 1018.82 202.956C1018.08 203.181 1017.25 203.293 1016.32 203.293C1014.92 203.293 1013.74 203.044 1012.77 202.546C1011.81 202.048 1011.07 201.403 1010.58 200.612C1010.08 199.821 1009.83 198.986 1009.83 198.107H1012.55C1012.59 198.85 1012.81 199.44 1013.2 199.88C1013.59 200.31 1014.07 200.617 1014.63 200.803C1015.2 200.979 1015.76 201.066 1016.32 201.066C1017.06 201.066 1017.68 200.969 1018.18 200.773C1018.69 200.578 1019.07 200.31 1019.34 199.968C1019.6 199.626 1019.73 199.235 1019.73 198.796ZM1031.64 192.819V195.046H1024.49V192.819H1031.64ZM1037.24 180.5V203H1034.51V180.5H1037.24ZM1048.16 203.293C1047.06 203.293 1046.06 203.107 1045.16 202.736C1044.27 202.355 1043.51 201.823 1042.86 201.14C1042.23 200.456 1041.74 199.646 1041.4 198.708C1041.05 197.771 1040.88 196.745 1040.88 195.632V195.017C1040.88 193.728 1041.07 192.58 1041.46 191.574C1041.84 190.559 1042.35 189.699 1043.01 188.996C1043.66 188.293 1044.4 187.761 1045.23 187.399C1046.06 187.038 1046.92 186.857 1047.81 186.857C1048.95 186.857 1049.92 187.053 1050.74 187.443C1051.57 187.834 1052.25 188.381 1052.78 189.084C1053.31 189.777 1053.7 190.598 1053.95 191.545C1054.2 192.482 1054.33 193.508 1054.33 194.621V195.837H1042.5V193.625H1051.62V193.42C1051.58 192.717 1051.44 192.033 1051.18 191.369C1050.94 190.705 1050.55 190.158 1050.01 189.729C1049.47 189.299 1048.74 189.084 1047.81 189.084C1047.2 189.084 1046.63 189.216 1046.11 189.479C1045.6 189.733 1045.15 190.114 1044.78 190.622C1044.41 191.13 1044.12 191.75 1043.92 192.482C1043.71 193.215 1043.61 194.06 1043.61 195.017V195.632C1043.61 196.384 1043.71 197.092 1043.92 197.756C1044.13 198.41 1044.44 198.986 1044.84 199.484C1045.25 199.982 1045.74 200.373 1046.32 200.656C1046.9 200.939 1047.57 201.081 1048.31 201.081C1049.27 201.081 1050.08 200.886 1050.74 200.495C1051.41 200.104 1051.99 199.582 1052.49 198.928L1054.13 200.231C1053.78 200.749 1053.35 201.242 1052.82 201.711C1052.29 202.18 1051.65 202.561 1050.87 202.854C1050.11 203.146 1049.21 203.293 1048.16 203.293Z" fill="black"/>
<path d="M1036.37 54.5V27.25C1036.37 22.2542 1032.29 18.1667 1027.29 18.1667H1022.75V13.625C1022.75 11.1271 1020.71 9.08337 1018.21 9.08337C1015.71 9.08337 1013.67 11.1271 1013.67 13.625V18.1667H977.333V13.625C977.333 11.1271 975.29 9.08337 972.792 9.08337C970.294 9.08337 968.25 11.1271 968.25 13.625V18.1667H963.708C958.712 18.1667 954.625 22.2542 954.625 27.25V90.8334C954.625 95.8292 958.712 99.9167 963.708 99.9167H995.5V90.8334H963.708V45.4167H1027.29V54.5H1036.37ZM1009.72 90.8334C1007.22 90.8334 1005.58 93.3767 1006.63 95.6475C1008.42 99.6274 1011.32 103.005 1014.99 105.374C1018.65 107.742 1022.93 109.002 1027.29 109C1039.83 109 1050 98.8267 1050 86.2917C1050 73.7567 1039.83 63.5834 1027.29 63.5834C1021.11 63.5834 1015.48 66.0813 1011.4 70.078V66.9896C1011.4 65.1275 1009.85 63.5834 1007.99 63.5834C1006.13 63.5834 1004.58 65.1275 1004.58 66.9896V77.2084C1004.58 79.7063 1006.63 81.75 1009.12 81.75H1019.34C1021.21 81.75 1022.75 80.2059 1022.75 78.3438C1022.75 76.4817 1021.21 74.9375 1019.34 74.9375H1016.16C1019.03 72.1217 1022.98 70.3959 1027.29 70.3959C1036.06 70.3959 1043.19 77.5263 1043.19 86.2917C1043.19 95.0571 1036.06 102.188 1027.29 102.188C1020.84 102.188 1015.3 98.3271 1012.8 92.8317C1012.54 92.2362 1012.1 91.7308 1011.55 91.3762C1011.01 91.0216 1010.37 90.8331 1009.72 90.8334V90.8334Z" fill="#FF4F5A"/>
</svg>
