<svg width="431" height="42" viewBox="0 0 431 42" fill="none" xmlns="http://www.w3.org/2000/svg">
<rect x="0.5" y="0.5" width="430" height="41" rx="3.5" stroke="#D8D8D8"/>
<path d="M134.211 23.9307H135.898C135.811 24.7393 135.579 25.4629 135.204 26.1016C134.829 26.7402 134.299 27.2471 133.613 27.6221C132.928 27.9912 132.072 28.1758 131.047 28.1758C130.297 28.1758 129.614 28.0352 128.999 27.7539C128.39 27.4727 127.865 27.0742 127.426 26.5586C126.986 26.0371 126.646 25.4131 126.406 24.6865C126.172 23.9541 126.055 23.1396 126.055 22.2432V20.9688C126.055 20.0723 126.172 19.2607 126.406 18.5342C126.646 17.8018 126.989 17.1748 127.435 16.6533C127.886 16.1318 128.428 15.7305 129.061 15.4492C129.693 15.168 130.405 15.0273 131.196 15.0273C132.163 15.0273 132.98 15.209 133.648 15.5723C134.316 15.9355 134.835 16.4395 135.204 17.084C135.579 17.7227 135.811 18.4639 135.898 19.3076H134.211C134.129 18.71 133.977 18.1973 133.754 17.7695C133.531 17.3359 133.215 17.002 132.805 16.7676C132.395 16.5332 131.858 16.416 131.196 16.416C130.628 16.416 130.127 16.5244 129.693 16.7412C129.266 16.958 128.905 17.2656 128.612 17.6641C128.325 18.0625 128.108 18.54 127.962 19.0967C127.815 19.6533 127.742 20.2715 127.742 20.9512V22.2432C127.742 22.8701 127.807 23.459 127.936 24.0098C128.07 24.5605 128.272 25.0439 128.542 25.46C128.812 25.876 129.154 26.2041 129.57 26.4443C129.986 26.6787 130.479 26.7959 131.047 26.7959C131.768 26.7959 132.342 26.6816 132.77 26.4531C133.197 26.2246 133.52 25.8965 133.736 25.4688C133.959 25.041 134.117 24.5283 134.211 23.9307ZM137.533 23.3506V23.1484C137.533 22.4629 137.633 21.8271 137.832 21.2412C138.031 20.6494 138.318 20.1367 138.693 19.7031C139.068 19.2637 139.522 18.9238 140.056 18.6836C140.589 18.4375 141.187 18.3145 141.849 18.3145C142.517 18.3145 143.117 18.4375 143.65 18.6836C144.189 18.9238 144.646 19.2637 145.021 19.7031C145.402 20.1367 145.692 20.6494 145.892 21.2412C146.091 21.8271 146.19 22.4629 146.19 23.1484V23.3506C146.19 24.0361 146.091 24.6719 145.892 25.2578C145.692 25.8438 145.402 26.3564 145.021 26.7959C144.646 27.2295 144.192 27.5693 143.659 27.8154C143.132 28.0557 142.534 28.1758 141.866 28.1758C141.198 28.1758 140.598 28.0557 140.064 27.8154C139.531 27.5693 139.074 27.2295 138.693 26.7959C138.318 26.3564 138.031 25.8438 137.832 25.2578C137.633 24.6719 137.533 24.0361 137.533 23.3506ZM139.159 23.1484V23.3506C139.159 23.8252 139.215 24.2734 139.326 24.6953C139.438 25.1113 139.604 25.4805 139.827 25.8027C140.056 26.125 140.34 26.3799 140.68 26.5674C141.02 26.749 141.415 26.8398 141.866 26.8398C142.312 26.8398 142.701 26.749 143.035 26.5674C143.375 26.3799 143.656 26.125 143.879 25.8027C144.102 25.4805 144.269 25.1113 144.38 24.6953C144.497 24.2734 144.556 23.8252 144.556 23.3506V23.1484C144.556 22.6797 144.497 22.2373 144.38 21.8213C144.269 21.3994 144.099 21.0273 143.87 20.7051C143.647 20.377 143.366 20.1191 143.026 19.9316C142.692 19.7441 142.3 19.6504 141.849 19.6504C141.403 19.6504 141.011 19.7441 140.671 19.9316C140.337 20.1191 140.056 20.377 139.827 20.7051C139.604 21.0273 139.438 21.3994 139.326 21.8213C139.215 22.2373 139.159 22.6797 139.159 23.1484ZM149.855 20.5205V28H148.229V18.4902H149.768L149.855 20.5205ZM149.469 22.8848L148.792 22.8584C148.798 22.208 148.895 21.6074 149.082 21.0566C149.27 20.5 149.533 20.0166 149.873 19.6064C150.213 19.1963 150.617 18.8799 151.086 18.6572C151.561 18.4287 152.085 18.3145 152.659 18.3145C153.128 18.3145 153.55 18.3789 153.925 18.5078C154.3 18.6309 154.619 18.8301 154.883 19.1055C155.152 19.3809 155.357 19.7383 155.498 20.1777C155.639 20.6113 155.709 21.1416 155.709 21.7686V28H154.074V21.751C154.074 21.2529 154.001 20.8545 153.854 20.5557C153.708 20.251 153.494 20.0312 153.213 19.8965C152.932 19.7559 152.586 19.6855 152.176 19.6855C151.771 19.6855 151.402 19.7705 151.068 19.9404C150.74 20.1104 150.456 20.3447 150.216 20.6436C149.981 20.9424 149.797 21.2852 149.662 21.6719C149.533 22.0527 149.469 22.457 149.469 22.8848ZM162.16 18.4902V19.7383H157.019V18.4902H162.16ZM158.759 16.1787H160.385V25.6445C160.385 25.9668 160.435 26.21 160.534 26.374C160.634 26.5381 160.763 26.6465 160.921 26.6992C161.079 26.752 161.249 26.7783 161.431 26.7783C161.565 26.7783 161.706 26.7666 161.853 26.7432C162.005 26.7139 162.119 26.6904 162.195 26.6729L162.204 28C162.075 28.041 161.905 28.0791 161.694 28.1143C161.489 28.1553 161.24 28.1758 160.947 28.1758C160.549 28.1758 160.183 28.0967 159.849 27.9385C159.515 27.7803 159.248 27.5166 159.049 27.1475C158.855 26.7725 158.759 26.2686 158.759 25.6357V16.1787ZM165.834 18.4902V28H164.199V18.4902H165.834ZM164.076 15.9678C164.076 15.7041 164.155 15.4814 164.313 15.2998C164.478 15.1182 164.718 15.0273 165.034 15.0273C165.345 15.0273 165.582 15.1182 165.746 15.2998C165.916 15.4814 166.001 15.7041 166.001 15.9678C166.001 16.2197 165.916 16.4365 165.746 16.6182C165.582 16.7939 165.345 16.8818 165.034 16.8818C164.718 16.8818 164.478 16.7939 164.313 16.6182C164.155 16.4365 164.076 16.2197 164.076 15.9678ZM170.07 20.5205V28H168.444V18.4902H169.982L170.07 20.5205ZM169.684 22.8848L169.007 22.8584C169.013 22.208 169.109 21.6074 169.297 21.0566C169.484 20.5 169.748 20.0166 170.088 19.6064C170.428 19.1963 170.832 18.8799 171.301 18.6572C171.775 18.4287 172.3 18.3145 172.874 18.3145C173.343 18.3145 173.765 18.3789 174.14 18.5078C174.515 18.6309 174.834 18.8301 175.098 19.1055C175.367 19.3809 175.572 19.7383 175.713 20.1777C175.854 20.6113 175.924 21.1416 175.924 21.7686V28H174.289V21.751C174.289 21.2529 174.216 20.8545 174.069 20.5557C173.923 20.251 173.709 20.0312 173.428 19.8965C173.146 19.7559 172.801 19.6855 172.391 19.6855C171.986 19.6855 171.617 19.7705 171.283 19.9404C170.955 20.1104 170.671 20.3447 170.431 20.6436C170.196 20.9424 170.012 21.2852 169.877 21.6719C169.748 22.0527 169.684 22.457 169.684 22.8848ZM184.212 25.8027V18.4902H185.847V28H184.291L184.212 25.8027ZM184.52 23.7988L185.196 23.7812C185.196 24.4141 185.129 25 184.994 25.5391C184.865 26.0723 184.654 26.5352 184.361 26.9277C184.068 27.3203 183.685 27.6279 183.21 27.8506C182.735 28.0674 182.158 28.1758 181.479 28.1758C181.016 28.1758 180.591 28.1084 180.204 27.9736C179.823 27.8389 179.495 27.6309 179.22 27.3496C178.944 27.0684 178.73 26.7021 178.578 26.251C178.432 25.7998 178.358 25.2578 178.358 24.625V18.4902H179.984V24.6426C179.984 25.0703 180.031 25.4248 180.125 25.7061C180.225 25.9814 180.356 26.2012 180.521 26.3652C180.69 26.5234 180.878 26.6348 181.083 26.6992C181.294 26.7637 181.511 26.7959 181.733 26.7959C182.425 26.7959 182.973 26.6641 183.377 26.4004C183.781 26.1309 184.071 25.7705 184.247 25.3193C184.429 24.8623 184.52 24.3555 184.52 23.7988ZM192.271 28.1758C191.609 28.1758 191.009 28.0645 190.47 27.8418C189.937 27.6133 189.477 27.2939 189.09 26.8838C188.709 26.4736 188.416 25.9873 188.211 25.4248C188.006 24.8623 187.903 24.2471 187.903 23.5791V23.21C187.903 22.4365 188.018 21.748 188.246 21.1445C188.475 20.5352 188.785 20.0195 189.178 19.5977C189.57 19.1758 190.016 18.8564 190.514 18.6396C191.012 18.4229 191.527 18.3145 192.061 18.3145C192.74 18.3145 193.326 18.4316 193.818 18.666C194.316 18.9004 194.724 19.2285 195.04 19.6504C195.356 20.0664 195.591 20.5586 195.743 21.127C195.896 21.6895 195.972 22.3047 195.972 22.9727V23.7021H188.87V22.375H194.346V22.252C194.322 21.8301 194.234 21.4199 194.082 21.0215C193.936 20.623 193.701 20.2949 193.379 20.0371C193.057 19.7793 192.617 19.6504 192.061 19.6504C191.691 19.6504 191.352 19.7295 191.041 19.8877C190.73 20.04 190.464 20.2686 190.241 20.5732C190.019 20.8779 189.846 21.25 189.723 21.6895C189.6 22.1289 189.538 22.6357 189.538 23.21V23.5791C189.538 24.0303 189.6 24.4551 189.723 24.8535C189.852 25.2461 190.036 25.5918 190.276 25.8906C190.522 26.1895 190.818 26.4238 191.164 26.5938C191.516 26.7637 191.914 26.8486 192.359 26.8486C192.934 26.8486 193.42 26.7314 193.818 26.4971C194.217 26.2627 194.565 25.9492 194.864 25.5566L195.849 26.3389C195.644 26.6494 195.383 26.9453 195.066 27.2266C194.75 27.5078 194.36 27.7363 193.897 27.9121C193.44 28.0879 192.898 28.1758 192.271 28.1758ZM208.153 25.8027V18.4902H209.788V28H208.232L208.153 25.8027ZM208.461 23.7988L209.138 23.7812C209.138 24.4141 209.07 25 208.936 25.5391C208.807 26.0723 208.596 26.5352 208.303 26.9277C208.01 27.3203 207.626 27.6279 207.151 27.8506C206.677 28.0674 206.1 28.1758 205.42 28.1758C204.957 28.1758 204.532 28.1084 204.146 27.9736C203.765 27.8389 203.437 27.6309 203.161 27.3496C202.886 27.0684 202.672 26.7021 202.52 26.251C202.373 25.7998 202.3 25.2578 202.3 24.625V18.4902H203.926V24.6426C203.926 25.0703 203.973 25.4248 204.066 25.7061C204.166 25.9814 204.298 26.2012 204.462 26.3652C204.632 26.5234 204.819 26.6348 205.024 26.6992C205.235 26.7637 205.452 26.7959 205.675 26.7959C206.366 26.7959 206.914 26.6641 207.318 26.4004C207.723 26.1309 208.013 25.7705 208.188 25.3193C208.37 24.8623 208.461 24.3555 208.461 23.7988ZM217.804 25.4775C217.804 25.2432 217.751 25.0264 217.646 24.8271C217.546 24.6221 217.338 24.4375 217.021 24.2734C216.711 24.1035 216.242 23.957 215.615 23.834C215.088 23.7227 214.61 23.5908 214.183 23.4385C213.761 23.2861 213.4 23.1016 213.102 22.8848C212.809 22.668 212.583 22.4131 212.425 22.1201C212.267 21.8271 212.188 21.4844 212.188 21.0918C212.188 20.7168 212.27 20.3623 212.434 20.0283C212.604 19.6943 212.841 19.3984 213.146 19.1406C213.456 18.8828 213.828 18.6807 214.262 18.5342C214.695 18.3877 215.179 18.3145 215.712 18.3145C216.474 18.3145 217.124 18.4492 217.663 18.7188C218.202 18.9883 218.615 19.3486 218.902 19.7998C219.189 20.2451 219.333 20.7402 219.333 21.2852H217.707C217.707 21.0215 217.628 20.7666 217.47 20.5205C217.317 20.2686 217.092 20.0605 216.793 19.8965C216.5 19.7324 216.14 19.6504 215.712 19.6504C215.261 19.6504 214.895 19.7207 214.613 19.8613C214.338 19.9961 214.136 20.1689 214.007 20.3799C213.884 20.5908 213.822 20.8135 213.822 21.0479C213.822 21.2236 213.852 21.3818 213.91 21.5225C213.975 21.6572 214.086 21.7832 214.244 21.9004C214.402 22.0117 214.625 22.1172 214.912 22.2168C215.199 22.3164 215.565 22.416 216.011 22.5156C216.79 22.6914 217.432 22.9023 217.936 23.1484C218.439 23.3945 218.814 23.6963 219.061 24.0537C219.307 24.4111 219.43 24.8447 219.43 25.3545C219.43 25.7705 219.342 26.1514 219.166 26.4971C218.996 26.8428 218.747 27.1416 218.419 27.3936C218.097 27.6396 217.71 27.833 217.259 27.9736C216.813 28.1084 216.312 28.1758 215.756 28.1758C214.918 28.1758 214.209 28.0264 213.629 27.7275C213.049 27.4287 212.609 27.042 212.311 26.5674C212.012 26.0928 211.862 25.5918 211.862 25.0645H213.497C213.521 25.5098 213.649 25.8643 213.884 26.1279C214.118 26.3857 214.405 26.5703 214.745 26.6816C215.085 26.7871 215.422 26.8398 215.756 26.8398C216.201 26.8398 216.573 26.7812 216.872 26.6641C217.177 26.5469 217.408 26.3857 217.566 26.1807C217.725 25.9756 217.804 25.7412 217.804 25.4775ZM223.332 18.4902V28H221.697V18.4902H223.332ZM221.574 15.9678C221.574 15.7041 221.653 15.4814 221.812 15.2998C221.976 15.1182 222.216 15.0273 222.532 15.0273C222.843 15.0273 223.08 15.1182 223.244 15.2998C223.414 15.4814 223.499 15.7041 223.499 15.9678C223.499 16.2197 223.414 16.4365 223.244 16.6182C223.08 16.7939 222.843 16.8818 222.532 16.8818C222.216 16.8818 221.976 16.7939 221.812 16.6182C221.653 16.4365 221.574 16.2197 221.574 15.9678ZM227.568 20.5205V28H225.942V18.4902H227.48L227.568 20.5205ZM227.182 22.8848L226.505 22.8584C226.511 22.208 226.607 21.6074 226.795 21.0566C226.982 20.5 227.246 20.0166 227.586 19.6064C227.926 19.1963 228.33 18.8799 228.799 18.6572C229.273 18.4287 229.798 18.3145 230.372 18.3145C230.841 18.3145 231.263 18.3789 231.638 18.5078C232.013 18.6309 232.332 18.8301 232.596 19.1055C232.865 19.3809 233.07 19.7383 233.211 20.1777C233.352 20.6113 233.422 21.1416 233.422 21.7686V28H231.787V21.751C231.787 21.2529 231.714 20.8545 231.567 20.5557C231.421 20.251 231.207 20.0312 230.926 19.8965C230.645 19.7559 230.299 19.6855 229.889 19.6855C229.484 19.6855 229.115 19.7705 228.781 19.9404C228.453 20.1104 228.169 20.3447 227.929 20.6436C227.694 20.9424 227.51 21.2852 227.375 21.6719C227.246 22.0527 227.182 22.457 227.182 22.8848ZM242.053 18.4902H243.529V27.7979C243.529 28.6357 243.359 29.3506 243.02 29.9424C242.68 30.5342 242.205 30.9824 241.596 31.2871C240.992 31.5977 240.295 31.7529 239.504 31.7529C239.176 31.7529 238.789 31.7002 238.344 31.5947C237.904 31.4951 237.471 31.3223 237.043 31.0762C236.621 30.8359 236.267 30.5107 235.979 30.1006L236.832 29.1338C237.23 29.6143 237.646 29.9482 238.08 30.1357C238.52 30.3232 238.953 30.417 239.381 30.417C239.896 30.417 240.342 30.3203 240.717 30.127C241.092 29.9336 241.382 29.6465 241.587 29.2656C241.798 28.8906 241.903 28.4277 241.903 27.877V20.582L242.053 18.4902ZM235.505 23.3506V23.166C235.505 22.4395 235.59 21.7803 235.76 21.1885C235.936 20.5908 236.185 20.0781 236.507 19.6504C236.835 19.2227 237.23 18.8945 237.693 18.666C238.156 18.4316 238.678 18.3145 239.258 18.3145C239.855 18.3145 240.377 18.4199 240.822 18.6309C241.273 18.8359 241.654 19.1377 241.965 19.5361C242.281 19.9287 242.53 20.4033 242.712 20.96C242.894 21.5166 243.02 22.1465 243.09 22.8496V23.6582C243.025 24.3555 242.899 24.9824 242.712 25.5391C242.53 26.0957 242.281 26.5703 241.965 26.9629C241.654 27.3555 241.273 27.6572 240.822 27.8682C240.371 28.0732 239.844 28.1758 239.24 28.1758C238.672 28.1758 238.156 28.0557 237.693 27.8154C237.236 27.5752 236.844 27.2383 236.516 26.8047C236.188 26.3711 235.936 25.8613 235.76 25.2754C235.59 24.6836 235.505 24.042 235.505 23.3506ZM237.131 23.166V23.3506C237.131 23.8252 237.178 24.2705 237.271 24.6865C237.371 25.1025 237.521 25.4688 237.72 25.7852C237.925 26.1016 238.186 26.3506 238.502 26.5322C238.818 26.708 239.196 26.7959 239.636 26.7959C240.175 26.7959 240.62 26.6816 240.972 26.4531C241.323 26.2246 241.602 25.9229 241.807 25.5479C242.018 25.1729 242.182 24.7656 242.299 24.3262V22.208C242.234 21.8857 242.135 21.5752 242 21.2764C241.871 20.9717 241.701 20.7021 241.49 20.4678C241.285 20.2275 241.03 20.0371 240.726 19.8965C240.421 19.7559 240.063 19.6855 239.653 19.6855C239.208 19.6855 238.824 19.7793 238.502 19.9668C238.186 20.1484 237.925 20.4004 237.72 20.7227C237.521 21.0391 237.371 21.4082 237.271 21.8301C237.178 22.2461 237.131 22.6914 237.131 23.166ZM260.167 21.6279V26.3125C260.009 26.5469 259.757 26.8105 259.411 27.1035C259.065 27.3906 258.588 27.6426 257.979 27.8594C257.375 28.0703 256.596 28.1758 255.641 28.1758C254.861 28.1758 254.144 28.041 253.487 27.7715C252.837 27.4961 252.271 27.0977 251.791 26.5762C251.316 26.0488 250.947 25.4102 250.684 24.6602C250.426 23.9043 250.297 23.0488 250.297 22.0938V21.1006C250.297 20.1455 250.408 19.293 250.631 18.543C250.859 17.793 251.193 17.1572 251.633 16.6357C252.072 16.1084 252.611 15.71 253.25 15.4404C253.889 15.165 254.621 15.0273 255.447 15.0273C256.426 15.0273 257.243 15.1973 257.899 15.5371C258.562 15.8711 259.077 16.334 259.446 16.9258C259.821 17.5176 260.062 18.1914 260.167 18.9473H258.471C258.395 18.4844 258.242 18.0625 258.014 17.6816C257.791 17.3008 257.472 16.9961 257.056 16.7676C256.64 16.5332 256.104 16.416 255.447 16.416C254.855 16.416 254.343 16.5244 253.909 16.7412C253.476 16.958 253.118 17.2686 252.837 17.6729C252.556 18.0771 252.345 18.5664 252.204 19.1406C252.069 19.7148 252.002 20.3623 252.002 21.083V22.0938C252.002 22.832 252.087 23.4912 252.257 24.0713C252.433 24.6514 252.682 25.1465 253.004 25.5566C253.326 25.9609 253.71 26.2686 254.155 26.4795C254.606 26.6904 255.104 26.7959 255.649 26.7959C256.253 26.7959 256.742 26.7461 257.117 26.6465C257.492 26.541 257.785 26.418 257.996 26.2773C258.207 26.1309 258.368 25.9932 258.479 25.8643V22.999H255.518V21.6279H260.167ZM264.5 18.4902V28H262.865V18.4902H264.5ZM262.742 15.9678C262.742 15.7041 262.821 15.4814 262.979 15.2998C263.144 15.1182 263.384 15.0273 263.7 15.0273C264.011 15.0273 264.248 15.1182 264.412 15.2998C264.582 15.4814 264.667 15.7041 264.667 15.9678C264.667 16.2197 264.582 16.4365 264.412 16.6182C264.248 16.7939 264.011 16.8818 263.7 16.8818C263.384 16.8818 263.144 16.7939 262.979 16.6182C262.821 16.4365 262.742 16.2197 262.742 15.9678ZM271.092 18.4902V19.7383H265.95V18.4902H271.092ZM267.69 16.1787H269.316V25.6445C269.316 25.9668 269.366 26.21 269.466 26.374C269.565 26.5381 269.694 26.6465 269.853 26.6992C270.011 26.752 270.181 26.7783 270.362 26.7783C270.497 26.7783 270.638 26.7666 270.784 26.7432C270.937 26.7139 271.051 26.6904 271.127 26.6729L271.136 28C271.007 28.041 270.837 28.0791 270.626 28.1143C270.421 28.1553 270.172 28.1758 269.879 28.1758C269.48 28.1758 269.114 28.0967 268.78 27.9385C268.446 27.7803 268.18 27.5166 267.98 27.1475C267.787 26.7725 267.69 26.2686 267.69 25.6357V16.1787ZM274.625 14.5V28H272.999V14.5H274.625ZM274.238 22.8848L273.562 22.8584C273.567 22.208 273.664 21.6074 273.852 21.0566C274.039 20.5 274.303 20.0166 274.643 19.6064C274.982 19.1963 275.387 18.8799 275.855 18.6572C276.33 18.4287 276.854 18.3145 277.429 18.3145C277.897 18.3145 278.319 18.3789 278.694 18.5078C279.069 18.6309 279.389 18.8301 279.652 19.1055C279.922 19.3809 280.127 19.7383 280.268 20.1777C280.408 20.6113 280.479 21.1416 280.479 21.7686V28H278.844V21.751C278.844 21.2529 278.771 20.8545 278.624 20.5557C278.478 20.251 278.264 20.0312 277.982 19.8965C277.701 19.7559 277.355 19.6855 276.945 19.6855C276.541 19.6855 276.172 19.7705 275.838 19.9404C275.51 20.1104 275.226 20.3447 274.985 20.6436C274.751 20.9424 274.566 21.2852 274.432 21.6719C274.303 22.0527 274.238 22.457 274.238 22.8848ZM288.731 25.8027V18.4902H290.366V28H288.811L288.731 25.8027ZM289.039 23.7988L289.716 23.7812C289.716 24.4141 289.648 25 289.514 25.5391C289.385 26.0723 289.174 26.5352 288.881 26.9277C288.588 27.3203 288.204 27.6279 287.729 27.8506C287.255 28.0674 286.678 28.1758 285.998 28.1758C285.535 28.1758 285.11 28.1084 284.724 27.9736C284.343 27.8389 284.015 27.6309 283.739 27.3496C283.464 27.0684 283.25 26.7021 283.098 26.251C282.951 25.7998 282.878 25.2578 282.878 24.625V18.4902H284.504V24.6426C284.504 25.0703 284.551 25.4248 284.645 25.7061C284.744 25.9814 284.876 26.2012 285.04 26.3652C285.21 26.5234 285.397 26.6348 285.603 26.6992C285.813 26.7637 286.03 26.7959 286.253 26.7959C286.944 26.7959 287.492 26.6641 287.896 26.4004C288.301 26.1309 288.591 25.7705 288.767 25.3193C288.948 24.8623 289.039 24.3555 289.039 23.7988ZM292.836 14.5H294.471V26.1543L294.33 28H292.836V14.5ZM300.896 23.166V23.3506C300.896 24.042 300.813 24.6836 300.649 25.2754C300.485 25.8613 300.245 26.3711 299.929 26.8047C299.612 27.2383 299.226 27.5752 298.769 27.8154C298.312 28.0557 297.787 28.1758 297.195 28.1758C296.592 28.1758 296.062 28.0732 295.604 27.8682C295.153 27.6572 294.772 27.3555 294.462 26.9629C294.151 26.5703 293.902 26.0957 293.715 25.5391C293.533 24.9824 293.407 24.3555 293.337 23.6582V22.8496C293.407 22.1465 293.533 21.5166 293.715 20.96C293.902 20.4033 294.151 19.9287 294.462 19.5361C294.772 19.1377 295.153 18.8359 295.604 18.6309C296.056 18.4199 296.58 18.3145 297.178 18.3145C297.775 18.3145 298.306 18.4316 298.769 18.666C299.231 18.8945 299.618 19.2227 299.929 19.6504C300.245 20.0781 300.485 20.5908 300.649 21.1885C300.813 21.7803 300.896 22.4395 300.896 23.166ZM299.261 23.3506V23.166C299.261 22.6914 299.217 22.2461 299.129 21.8301C299.041 21.4082 298.9 21.0391 298.707 20.7227C298.514 20.4004 298.259 20.1484 297.942 19.9668C297.626 19.7793 297.236 19.6855 296.773 19.6855C296.363 19.6855 296.006 19.7559 295.701 19.8965C295.402 20.0371 295.147 20.2275 294.937 20.4678C294.726 20.7021 294.553 20.9717 294.418 21.2764C294.289 21.5752 294.192 21.8857 294.128 22.208V24.3262C294.222 24.7363 294.374 25.1318 294.585 25.5127C294.802 25.8877 295.089 26.1953 295.446 26.4355C295.81 26.6758 296.258 26.7959 296.791 26.7959C297.23 26.7959 297.605 26.708 297.916 26.5322C298.232 26.3506 298.487 26.1016 298.681 25.7852C298.88 25.4688 299.026 25.1025 299.12 24.6865C299.214 24.2705 299.261 23.8252 299.261 23.3506Z" fill="black"/>
<path d="M106 10C104.687 10 103.386 10.2587 102.173 10.7612C100.96 11.2638 99.8575 12.0003 98.9289 12.9289C97.0536 14.8043 96 17.3478 96 20C96 24.42 98.87 28.17 102.84 29.5C103.34 29.58 103.5 29.27 103.5 29V27.31C100.73 27.91 100.14 25.97 100.14 25.97C99.68 24.81 99.03 24.5 99.03 24.5C98.12 23.88 99.1 23.9 99.1 23.9C100.1 23.97 100.63 24.93 100.63 24.93C101.5 26.45 102.97 26 103.54 25.76C103.63 25.11 103.89 24.67 104.17 24.42C101.95 24.17 99.62 23.31 99.62 19.5C99.62 18.39 100 17.5 100.65 16.79C100.55 16.54 100.2 15.5 100.75 14.15C100.75 14.15 101.59 13.88 103.5 15.17C104.29 14.95 105.15 14.84 106 14.84C106.85 14.84 107.71 14.95 108.5 15.17C110.41 13.88 111.25 14.15 111.25 14.15C111.8 15.5 111.45 16.54 111.35 16.79C112 17.5 112.38 18.39 112.38 19.5C112.38 23.32 110.04 24.16 107.81 24.41C108.17 24.72 108.5 25.33 108.5 26.26V29C108.5 29.27 108.66 29.59 109.17 29.5C113.14 28.16 116 24.42 116 20C116 18.6868 115.741 17.3864 115.239 16.1732C114.736 14.9599 114 13.8575 113.071 12.9289C112.142 12.0003 111.04 11.2638 109.827 10.7612C108.614 10.2587 107.313 10 106 10Z" fill="black"/>
</svg>
