<svg width="111" height="210" viewBox="0 0 111 210" fill="none" xmlns="http://www.w3.org/2000/svg">
<path d="M24.0859 196.555L28.3193 181.672H30.3701L29.1836 187.458L24.6279 203H22.5918L24.0859 196.555ZM19.7061 181.672L23.0752 196.262L24.0859 203H22.0645L16.8936 181.672H19.7061ZM35.8486 196.247L39.1445 181.672H41.9717L36.8154 203H34.7939L35.8486 196.247ZM30.6777 181.672L34.7939 196.555L36.2881 203H34.252L29.8574 187.458L28.6562 181.672H30.6777ZM47.084 189.641V203H44.374V187.15H47.0107L47.084 189.641ZM52.0352 187.062L52.0205 189.582C51.7959 189.533 51.5811 189.504 51.376 189.494C51.1807 189.475 50.9561 189.465 50.7021 189.465C50.0771 189.465 49.5254 189.562 49.0469 189.758C48.5684 189.953 48.1631 190.227 47.8311 190.578C47.499 190.93 47.2354 191.35 47.04 191.838C46.8545 192.316 46.7324 192.844 46.6738 193.42L45.9121 193.859C45.9121 192.902 46.0049 192.004 46.1904 191.164C46.3857 190.324 46.6836 189.582 47.084 188.938C47.4844 188.283 47.9922 187.775 48.6074 187.414C49.2324 187.043 49.9746 186.857 50.834 186.857C51.0293 186.857 51.2539 186.882 51.5078 186.931C51.7617 186.97 51.9375 187.014 52.0352 187.062ZM57.4844 187.15V203H54.7598V187.15H57.4844ZM54.5547 182.946C54.5547 182.507 54.6865 182.136 54.9502 181.833C55.2236 181.53 55.624 181.379 56.1514 181.379C56.6689 181.379 57.0645 181.53 57.3379 181.833C57.6211 182.136 57.7627 182.507 57.7627 182.946C57.7627 183.366 57.6211 183.728 57.3379 184.03C57.0645 184.323 56.6689 184.47 56.1514 184.47C55.624 184.47 55.2236 184.323 54.9502 184.03C54.6865 183.728 54.5547 183.366 54.5547 182.946ZM68.4707 187.15V189.23H59.9014V187.15H68.4707ZM62.8018 183.298H65.5117V199.074C65.5117 199.611 65.5947 200.017 65.7607 200.29C65.9268 200.563 66.1416 200.744 66.4053 200.832C66.6689 200.92 66.9521 200.964 67.2549 200.964C67.4795 200.964 67.7139 200.944 67.958 200.905C68.2119 200.856 68.4023 200.817 68.5293 200.788L68.5439 203C68.3291 203.068 68.0459 203.132 67.6943 203.19C67.3525 203.259 66.9375 203.293 66.4492 203.293C65.7852 203.293 65.1748 203.161 64.6182 202.897C64.0615 202.634 63.6172 202.194 63.2852 201.579C62.9629 200.954 62.8018 200.114 62.8018 199.06V183.298ZM78.2266 203.293C77.123 203.293 76.1221 203.107 75.2236 202.736C74.335 202.355 73.5684 201.823 72.9238 201.14C72.2891 200.456 71.8008 199.646 71.459 198.708C71.1172 197.771 70.9463 196.745 70.9463 195.632V195.017C70.9463 193.728 71.1367 192.58 71.5176 191.574C71.8984 190.559 72.416 189.699 73.0703 188.996C73.7246 188.293 74.4668 187.761 75.2969 187.399C76.127 187.038 76.9863 186.857 77.875 186.857C79.0078 186.857 79.9844 187.053 80.8047 187.443C81.6348 187.834 82.3135 188.381 82.8408 189.084C83.3682 189.777 83.7588 190.598 84.0127 191.545C84.2666 192.482 84.3936 193.508 84.3936 194.621V195.837H72.5576V193.625H81.6836V193.42C81.6445 192.717 81.498 192.033 81.2441 191.369C81 190.705 80.6094 190.158 80.0723 189.729C79.5352 189.299 78.8027 189.084 77.875 189.084C77.2598 189.084 76.6934 189.216 76.1758 189.479C75.6582 189.733 75.2139 190.114 74.8428 190.622C74.4717 191.13 74.1836 191.75 73.9785 192.482C73.7734 193.215 73.6709 194.06 73.6709 195.017V195.632C73.6709 196.384 73.7734 197.092 73.9785 197.756C74.1934 198.41 74.501 198.986 74.9014 199.484C75.3115 199.982 75.8047 200.373 76.3809 200.656C76.9668 200.939 77.6309 201.081 78.373 201.081C79.3301 201.081 80.1406 200.886 80.8047 200.495C81.4688 200.104 82.0498 199.582 82.5479 198.928L84.1885 200.231C83.8467 200.749 83.4121 201.242 82.8848 201.711C82.3574 202.18 81.708 202.561 80.9365 202.854C80.1748 203.146 79.2715 203.293 78.2266 203.293ZM97.9434 187.15V203H95.2188V187.15H97.9434ZM95.0137 182.946C95.0137 182.507 95.1455 182.136 95.4092 181.833C95.6826 181.53 96.083 181.379 96.6104 181.379C97.1279 181.379 97.5234 181.53 97.7969 181.833C98.0801 182.136 98.2217 182.507 98.2217 182.946C98.2217 183.366 98.0801 183.728 97.7969 184.03C97.5234 184.323 97.1279 184.47 96.6104 184.47C96.083 184.47 95.6826 184.323 95.4092 184.03C95.1455 183.728 95.0137 183.366 95.0137 182.946ZM108.93 187.15V189.23H100.36V187.15H108.93ZM103.261 183.298H105.971V199.074C105.971 199.611 106.054 200.017 106.22 200.29C106.386 200.563 106.601 200.744 106.864 200.832C107.128 200.92 107.411 200.964 107.714 200.964C107.938 200.964 108.173 200.944 108.417 200.905C108.671 200.856 108.861 200.817 108.988 200.788L109.003 203C108.788 203.068 108.505 203.132 108.153 203.19C107.812 203.259 107.396 203.293 106.908 203.293C106.244 203.293 105.634 203.161 105.077 202.897C104.521 202.634 104.076 202.194 103.744 201.579C103.422 200.954 103.261 200.114 103.261 199.06V183.298Z" fill="black"/>
<path d="M99.9167 19.3778L88.7139 8.17502C87.751 7.25692 86.4716 6.74475 85.1411 6.74475C83.8107 6.74475 82.5313 7.25692 81.5683 8.17502L71.6069 18.1667H18.1667C16.5606 18.1667 15.0204 18.8047 13.8847 19.9403C12.7491 21.076 12.1111 22.6162 12.1111 24.2222V90.8334C12.1111 92.4394 12.7491 93.9796 13.8847 95.1153C15.0204 96.2509 16.5606 96.8889 18.1667 96.8889H84.7778C86.3838 96.8889 87.9241 96.2509 89.0597 95.1153C90.1953 93.9796 90.8333 92.4394 90.8333 90.8334V35.6067L99.9167 26.5234C100.863 25.5753 101.395 24.2903 101.395 22.9506C101.395 21.6108 100.863 20.3258 99.9167 19.3778V19.3778ZM57.0131 60.9492L44.3267 63.765L47.3544 51.1997L76.2697 22.2239L86.0494 32.0036L57.0131 60.9492ZM89.3194 28.552L79.5397 18.7722L85.1411 13.1708L94.9208 22.9506L89.3194 28.552Z" fill="#FF4F5A"/>
</svg>
